<svg width="24" height="24" viewBox="0 0 24 24" fill="none" xmlns="http://www.w3.org/2000/svg">
<path d="M1.60205 16.1453C1.30461 15.9993 0.945074 16.122 0.799002 16.4194C0.65293 16.7168 0.775636 17.0764 1.07307 17.2225L4.17954 18.748C4.47697 18.8941 4.83651 18.7714 4.98258 18.474L6.50678 15.3703C6.65285 15.0729 6.53014 14.7134 6.23271 14.5673C5.93527 14.4212 5.57573 14.5439 5.42966 14.8414L4.54399 16.6448L3.90211 14.7641C2.37474 10.2888 4.76449 5.4227 9.23975 3.89533C11.4616 3.13703 13.7786 3.34382 15.7375 4.29262C16.0357 4.43708 16.3946 4.31242 16.539 4.01419C16.6835 3.71596 16.5588 3.3571 16.2606 3.21264C14.0289 2.13169 11.385 1.8952 8.85215 2.75965C3.74967 4.50108 1.025 10.0492 2.76643 15.1516L3.40831 17.0324L1.60205 16.1453Z" fill="#1A1A1A"/>
<path d="M22.379 7.85458C22.6765 8.00066 23.036 7.87795 23.1821 7.58051C23.3282 7.28307 23.2055 6.92354 22.908 6.77746L19.8016 5.25188C19.5041 5.10581 19.1446 5.22851 18.9985 5.52595L17.4743 8.62958C17.3282 8.92702 17.451 9.28656 17.7484 9.43263C18.0458 9.5787 18.4054 9.456 18.5514 9.15856L19.4371 7.35512L20.079 9.23587C21.6064 13.7111 19.2166 18.5772 14.7413 20.1046C12.5195 20.8629 10.2025 20.6561 8.24363 19.7073C7.9454 19.5628 7.58654 19.6875 7.44209 19.9857C7.29763 20.284 7.42229 20.6428 7.72052 20.7873C9.95217 21.8682 12.5961 22.1047 15.1289 21.2403C20.2314 19.4988 22.9561 13.9508 21.2147 8.84827L20.5728 6.96753L22.379 7.85458Z" fill="#1A1A1A"/>
</svg>
