<svg width="24" height="24" viewBox="0 0 24 24" fill="none" xmlns="http://www.w3.org/2000/svg">
<path d="M1.69021 15.9319C1.29363 15.7372 0.814247 15.9008 0.619484 16.2974C0.424721 16.6939 0.58833 17.1733 0.984914 17.3681L4.09138 18.8937C4.48796 19.0884 4.96734 18.9248 5.1621 18.5282L6.6863 15.4246C6.88106 15.028 6.71745 14.5487 6.32087 14.3539C5.92429 14.1591 5.4449 14.3227 5.25014 14.7193L4.57732 16.0894L4.09139 14.6656C2.5997 10.2948 4.93362 5.54242 9.30435 4.05073C11.4744 3.31012 13.7369 3.51196 15.6503 4.43874C16.0479 4.63134 16.5264 4.46513 16.719 4.06749C16.9116 3.66986 16.7454 3.19137 16.3478 2.99877C14.0706 1.89579 11.3723 1.65434 8.78756 2.53649C3.58054 4.3136 0.800045 9.97535 2.57715 15.1824L3.06308 16.6061L1.69021 15.9319Z" fill="#1A1A1A"/>
<path d="M22.2909 8.00017C22.6875 8.19493 23.1669 8.03132 23.3616 7.63474C23.5564 7.23815 23.3928 6.75877 22.9962 6.56401L19.8897 5.03843C19.4931 4.84366 19.0138 5.00727 18.819 5.40386L17.2948 8.50749C17.1 8.90407 17.2636 9.38345 17.6602 9.57821C18.0568 9.77298 18.5362 9.60937 18.731 9.21278L19.4038 7.84275L19.8897 9.26653C21.3814 13.6373 19.0475 18.3897 14.6767 19.8814C12.5067 20.622 10.2442 20.4201 8.33082 19.4934C7.93318 19.3008 7.4547 19.467 7.26209 19.8646C7.06949 20.2622 7.2357 20.7407 7.63334 20.9333C9.91046 22.0363 12.6088 22.2778 15.1935 21.3956C20.4006 19.6185 23.1811 13.9568 21.4039 8.74974L20.918 7.32595L22.2909 8.00017Z" fill="#1A1A1A"/>
</svg>
