<svg width="24" height="24" viewBox="0 0 24 24" fill="none" xmlns="http://www.w3.org/2000/svg">
<path fill-rule="evenodd" clip-rule="evenodd" d="M15.3904 13.8248C14.9992 13.8248 14.7384 13.6197 14.6406 13.4487C14.5509 13.2949 14.4042 13.1838 14.2412 13.1496C14.0782 13.1068 13.9152 13.1496 13.7685 13.2436C13.4833 13.4402 13.4018 13.859 13.5811 14.1667C13.85 14.6368 14.3064 14.9786 14.8443 15.1154V15.2436C14.8443 15.6197 15.1214 15.9188 15.4637 15.9188C15.806 15.9188 16.0831 15.6111 16.0831 15.2436V15.0641C16.784 14.8248 17.4442 14.1923 17.4442 13.2436C17.4442 12.6966 17.1997 12.2265 16.7433 11.8761C16.4417 11.6453 16.0505 11.4744 15.5534 11.3291C15.3007 11.2436 15.1133 11.1496 14.9829 11.0385C14.8525 10.9273 14.828 10.8504 14.828 10.765C14.828 10.5171 15.0725 10.1752 15.5371 10.1752C15.8712 10.1752 16.0831 10.3632 16.1809 10.5342C16.2624 10.6966 16.401 10.8077 16.5721 10.8504C16.7351 10.8932 16.8981 10.8675 17.0448 10.7735C17.3382 10.5855 17.436 10.1752 17.2649 9.85043C17.0122 9.38034 16.5966 9.03846 16.0913 8.89316V8.74786C16.0913 8.37179 15.8142 8.07265 15.4719 8.07265C15.1296 8.07265 14.8525 8.37179 14.8525 8.74786V8.94444C14.0945 9.23504 13.5974 9.94444 13.5974 10.7564C13.5974 11.2949 13.8256 11.7564 14.2494 12.1068C14.5346 12.3376 14.9095 12.5256 15.4393 12.6795C15.7082 12.765 15.912 12.8675 16.0505 12.9701C16.2217 13.0983 16.2217 13.1838 16.2217 13.2265C16.2217 13.4658 15.9283 13.8162 15.3985 13.8162L15.3904 13.8248Z" fill="#1A1A1A"/>
<path fill-rule="evenodd" clip-rule="evenodd" d="M6.11573 9.2094H12.3667C12.7498 9.2094 13.0595 8.88461 13.0595 8.48291C13.0595 8.0812 12.7498 7.75641 12.3667 7.75641H6.11573C5.73268 7.75641 5.42298 8.0812 5.42298 8.48291C5.42298 8.88461 5.73268 9.2094 6.11573 9.2094Z" fill="#1A1A1A"/>
<path fill-rule="evenodd" clip-rule="evenodd" d="M9.23716 12.0043C9.23716 11.6026 8.92747 11.2778 8.54442 11.2778H2.69275C2.3097 11.2778 2 11.6026 2 12.0043C2 12.406 2.3097 12.7308 2.69275 12.7308H8.54442C8.92747 12.7308 9.23716 12.406 9.23716 12.0043Z" fill="#1A1A1A"/>
<path fill-rule="evenodd" clip-rule="evenodd" d="M10.0033 15.5769C10.0033 15.1752 9.69356 14.8504 9.31051 14.8504H5.39038C5.00733 14.8504 4.69764 15.1752 4.69764 15.5769C4.69764 15.9786 5.00733 16.3034 5.39038 16.3034H9.31051C9.69356 16.3034 10.0033 15.9786 10.0033 15.5769Z" fill="#1A1A1A"/>
<path fill-rule="evenodd" clip-rule="evenodd" d="M18.903 4.5H12.326C11.9674 4.5 11.6496 4.74786 11.5436 5.11538C11.3888 5.66239 11.78 6.2094 12.326 6.2094H18.903C19.7588 6.2094 20.4515 6.97863 20.4515 7.9188V16.0812C20.4515 17.0214 19.7588 17.7906 18.903 17.7906H8.61777C8.25917 17.7906 7.93317 18.0385 7.83537 18.406C7.68052 18.953 8.07172 19.5 8.61777 19.5H18.903C20.6145 19.5 22 17.9701 22 16.0812V7.9188C22 6.02991 20.6145 4.5 18.903 4.5Z" fill="#1A1A1A"/>
</svg>
