<svg width="24" height="24" viewBox="0 0 24 24" fill="none" xmlns="http://www.w3.org/2000/svg">
<path fill-rule="evenodd" clip-rule="evenodd" d="M7.96826 18.6375L7.96909 18.6343C8.04554 18.3446 8.29848 18.1547 8.56931 18.1547H8.61778V18.1499H9.94377C10.3268 18.1499 10.6365 18.1499 10.6365 17.1987C10.6365 16.2476 10.3268 16.2476 9.94377 16.2476H9.31053V16.2453C9.2988 16.2461 9.28699 16.2466 9.2751 16.2466H5.28108C4.99415 16.2466 4.74848 15.999 4.74848 15.6748C4.74848 15.3506 4.99415 15.1031 5.28108 15.1031H9.2751C9.28699 15.1031 9.2988 15.1035 9.31053 15.1043V15.0991H10.9438C11.3268 15.0991 11.6365 15.0982 11.6365 13.8374C11.6365 12.5766 11.3268 12.5757 10.9438 12.5757H8.54443V12.5735C8.53402 12.5746 8.52354 12.5753 8.51299 12.5757H4.69275C4.6873 12.5757 4.68188 12.5758 4.67646 12.576H2.5326C2.24566 12.576 2 12.3285 2 12.0043C2 11.6801 2.24566 11.4325 2.5326 11.4325H4.64699C4.66211 11.4342 4.67737 11.4351 4.69275 11.4351H10.9438C11.3268 11.4351 11.6365 11.4351 11.6365 10.2147C11.6365 8.9585 11.3268 8.9585 10.9438 8.9585H10.8224L10.8228 8.95818H6.0201C5.73316 8.95818 5.4875 8.71062 5.4875 8.38644C5.4875 8.06226 5.73316 7.8147 6.0201 7.8147H12.2919L12.2956 7.81177H12.6741C13.0202 7.81177 13.3 7.81177 13.3 6.82996C13.3 5.84814 13.0202 5.84814 12.6741 5.84814H12.3668V5.84528H12.3474C11.9383 5.84528 11.6223 5.42564 11.7462 4.98322C11.8311 4.68713 12.0798 4.5 12.3474 4.5H19.0484C20.6611 4.5 22 5.96023 22 7.80699V16.193C22 18.0398 20.6611 19.5 19.0484 19.5H8.56931C8.16003 19.5 7.84399 19.0801 7.96826 18.6375ZM16.4354 13.895H16.4054C15.9896 13.895 15.7055 13.6769 15.595 13.4839C15.5143 13.3455 15.3835 13.248 15.2419 13.2183L15.2385 13.2175C15.0998 13.1812 14.9573 13.2158 14.8223 13.3021C14.5702 13.4766 14.4945 13.8534 14.6566 14.1316C14.9158 14.5847 15.3565 14.9155 15.8766 15.0477L15.9293 15.0611V15.2438C15.9293 15.5868 16.1805 15.849 16.4787 15.849C16.7764 15.849 17.0281 15.5788 17.0281 15.2438V15.0142L17.0755 14.998C17.7558 14.7657 18.3892 14.1551 18.3892 13.2438C18.3892 12.7203 18.1563 12.2701 17.7157 11.9318C17.4239 11.7085 17.0419 11.5406 16.5487 11.3964L16.5459 11.3956C16.2895 11.3089 16.0926 11.2113 15.9525 11.0919C15.8833 11.0329 15.8373 10.979 15.8092 10.9242C15.7804 10.8679 15.773 10.8156 15.773 10.7651C15.773 10.4771 16.0504 10.1054 16.5521 10.1054C16.9158 10.1054 17.1488 10.3111 17.2567 10.4996L17.2586 10.5029C17.3311 10.6474 17.4531 10.745 17.6041 10.7827C17.7478 10.8204 17.8915 10.7984 18.022 10.7147C18.2822 10.548 18.3735 10.1788 18.2181 9.88348C17.974 9.42956 17.5734 9.10049 17.0869 8.96061L17.0363 8.94604V8.74804C17.0363 8.40503 16.7851 8.14282 16.4869 8.14282C16.1886 8.14282 15.9375 8.40503 15.9375 8.74804V8.99275L15.8925 9.00998C15.1611 9.2904 14.6824 9.97417 14.6824 10.7566C14.6824 11.2728 14.9002 11.7149 15.3087 12.0528C15.5847 12.276 15.9503 12.4604 16.4738 12.6124L16.4755 12.6129C16.7496 12.7 16.9608 12.8056 17.1072 12.914C17.1983 12.9823 17.2501 13.0438 17.2779 13.0992C17.3066 13.1566 17.3067 13.2017 17.3067 13.2267C17.3067 13.3726 17.2193 13.5381 17.0688 13.6648C16.9218 13.7887 16.7104 13.8796 16.4439 13.886L16.4354 13.895Z" fill="#1A1A1A"/>
</svg>
