<svg width="24" height="24" viewBox="0 0 24 24" fill="none" xmlns="http://www.w3.org/2000/svg">
<path fill-rule="evenodd" clip-rule="evenodd" d="M18.903 4.5H12.326C11.9674 4.5 11.6496 4.74786 11.5436 5.11538C11.4006 5.62045 11.7232 6.12552 12.2033 6.2H12.2741C12.6202 6.2 12.9 6.2 12.9 6.98C12.9 7.76 12.6202 7.76 12.2741 7.76H6.62593C6.6055 7.76 6.58531 7.75879 6.56538 7.75641H6.11573C5.73268 7.75641 5.42298 8.0812 5.42298 8.48291C5.42298 8.88461 5.73268 9.2094 6.11573 9.2094H10.5L10.4995 9.20996H10.9438C11.3268 9.20996 11.6365 9.20996 11.6365 10.26C11.6365 11.28 11.3268 11.28 10.9438 11.28H4.69275C4.67694 11.28 4.66127 11.2793 4.64573 11.2778H2.69275C2.3097 11.2778 2 11.6026 2 12.0043C2 12.406 2.3097 12.7308 2.69275 12.7308H4.65451C4.66717 12.7297 4.67992 12.7292 4.69275 12.7292H10.9438C11.3268 12.7292 11.6365 12.73 11.6365 13.7892C11.6365 14.8484 11.3268 14.8492 10.9438 14.8492H9.31008L9.31053 14.8504H9.31051H5.39038C5.00733 14.8504 4.69764 15.1752 4.69764 15.5769C4.69764 15.9786 5.00733 16.3034 5.39038 16.3034H9.31051L9.30742 16.3101H9.94377C10.3268 16.3101 10.6365 16.3101 10.6365 17.0501C10.6365 17.7901 10.3268 17.7901 9.94377 17.7901H8.61803L8.61778 17.7906H8.61777C8.25917 17.7906 7.93317 18.0385 7.83537 18.406C7.68052 18.953 8.07172 19.5 8.61777 19.5H18.903C20.6145 19.5 22 17.9701 22 16.0812V7.9188C22 6.02991 20.6145 4.5 18.903 4.5ZM15.6406 13.4487C15.7384 13.6196 15.9992 13.8248 16.3904 13.8248L16.3986 13.8162C16.9283 13.8162 17.2217 13.4658 17.2217 13.2265C17.2217 13.1837 17.2217 13.0983 17.0506 12.9701C16.912 12.8675 16.7083 12.7649 16.4393 12.6795C15.9096 12.5256 15.5347 12.3376 15.2494 12.1068C14.8256 11.7564 14.5974 11.2949 14.5974 10.7564C14.5974 9.94443 15.0946 9.23502 15.8525 8.94443V8.74785C15.8525 8.37178 16.1296 8.07263 16.4719 8.07263C16.8142 8.07263 17.0913 8.37178 17.0913 8.74785V8.89314C17.5966 9.03844 18.0122 9.38032 18.2649 9.85041C18.436 10.1752 18.3382 10.5855 18.0448 10.7735C17.8981 10.8675 17.7352 10.8931 17.5722 10.8504C17.401 10.8077 17.2625 10.6966 17.181 10.5342C17.0832 10.3632 16.8713 10.1752 16.5371 10.1752C16.0726 10.1752 15.8281 10.5171 15.8281 10.7649C15.8281 10.8504 15.8525 10.9273 15.9829 11.0384C16.1133 11.1496 16.3008 11.2436 16.5534 11.329C17.0506 11.4743 17.4418 11.6453 17.7433 11.8761C18.1997 12.2265 18.4442 12.6966 18.4442 13.2436C18.4442 14.1923 17.784 14.8248 17.0832 15.0641V15.2436C17.0832 15.6111 16.8061 15.9188 16.4638 15.9188C16.1215 15.9188 15.8444 15.6196 15.8444 15.2436V15.1154C15.3065 14.9786 14.8501 14.6367 14.5811 14.1666C14.4018 13.859 14.4833 13.4402 14.7686 13.2436C14.9153 13.1496 15.0783 13.1068 15.2413 13.1496C15.4043 13.1837 15.551 13.2949 15.6406 13.4487Z" fill="#1A1A1A"/>
</svg>
