<svg width="24" height="24" viewBox="0 0 24 24" fill="none" xmlns="http://www.w3.org/2000/svg">
<path fill-rule="evenodd" clip-rule="evenodd" d="M8.04364 18.4574L8.04283 18.4604C7.92086 18.8912 8.23105 19.2999 8.63277 19.2999H18.918C20.5009 19.2999 21.815 17.8787 21.815 16.0811V7.91875C21.815 6.12124 20.5009 4.69995 18.918 4.69995H12.341C12.0783 4.69995 11.8342 4.88209 11.7509 5.17028C11.6293 5.60091 11.9394 6.00935 12.341 6.00935H18.918C19.9027 6.00935 20.6665 6.88755 20.6665 7.91875V16.0811C20.6665 17.1124 19.9027 17.9905 18.918 17.9905H8.63277C8.36694 17.9905 8.11868 18.1754 8.04364 18.4574ZM12.3817 9.03926H6.13073C5.8491 9.03926 5.60798 8.7983 5.60798 8.48276C5.60798 8.16723 5.8491 7.92627 6.13073 7.92627H12.3817C12.6634 7.92627 12.9045 8.16723 12.9045 8.48276C12.9045 8.7983 12.6634 9.03926 12.3817 9.03926ZM8.55942 11.4476C8.84105 11.4476 9.08217 11.6886 9.08217 12.0041C9.08217 12.3197 8.84105 12.5606 8.55942 12.5606H2.70775C2.42612 12.5606 2.185 12.3197 2.185 12.0041C2.185 11.6886 2.42612 11.4476 2.70775 11.4476H8.55942ZM9.32551 15.0203C9.60714 15.0203 9.84826 15.2612 9.84826 15.5768C9.84826 15.8923 9.60714 16.1333 9.32551 16.1333H5.40538C5.12375 16.1333 4.88264 15.8923 4.88264 15.5768C4.88264 15.2612 5.12375 15.0203 5.40538 15.0203H9.32551ZM15.4054 13.895H15.4354L15.4439 13.886C15.7104 13.8796 15.9218 13.7887 16.0688 13.6648C16.2193 13.5381 16.3067 13.3726 16.3067 13.2267C16.3067 13.2017 16.3066 13.1566 16.2779 13.0992C16.2501 13.0438 16.1983 12.9823 16.1072 12.914C15.9608 12.8056 15.7496 12.7 15.4755 12.6129L15.4738 12.6124C14.9503 12.4604 14.5847 12.276 14.3087 12.0528C13.9002 11.7149 13.6824 11.2728 13.6824 10.7566C13.6824 9.97417 14.1611 9.2904 14.8925 9.00998L14.9375 8.99275V8.74804C14.9375 8.40503 15.1886 8.14282 15.4869 8.14282C15.7851 8.14282 16.0363 8.40503 16.0363 8.74804V8.94604L16.0869 8.96061C16.5734 9.10049 16.974 9.42956 17.2181 9.88348C17.3735 10.1788 17.2822 10.548 17.022 10.7147C16.8915 10.7984 16.7478 10.8204 16.6041 10.7827C16.4531 10.745 16.3311 10.6474 16.2586 10.5029L16.2567 10.4996C16.1488 10.3111 15.9158 10.1054 15.5521 10.1054C15.0504 10.1054 14.773 10.4771 14.773 10.7651C14.773 10.8156 14.7804 10.8679 14.8092 10.9242C14.8373 10.979 14.8833 11.0329 14.9525 11.0919C15.0926 11.2113 15.2895 11.3089 15.5459 11.3956L15.5487 11.3964C16.0419 11.5406 16.4239 11.7085 16.7157 11.9318C17.1563 12.2701 17.3892 12.7203 17.3892 13.2438C17.3892 14.1551 16.7558 14.7657 16.0755 14.998L16.0281 15.0142V15.2438C16.0281 15.5788 15.7764 15.849 15.4787 15.849C15.1805 15.849 14.9293 15.5868 14.9293 15.2438V15.0611L14.8766 15.0477C14.3565 14.9155 13.9158 14.5847 13.6566 14.1316C13.4945 13.8534 13.5702 13.4766 13.8223 13.3021C13.9573 13.2158 14.0998 13.1812 14.2385 13.2175L14.2419 13.2183C14.3835 13.248 14.5143 13.3455 14.595 13.4839C14.7055 13.6769 14.9897 13.895 15.4054 13.895Z" fill="#1A1A1A"/>
</svg>
