<svg width="24" height="24" viewBox="0 0 24 24" fill="none" xmlns="http://www.w3.org/2000/svg">
<path fill-rule="evenodd" clip-rule="evenodd" d="M4.84218 14.6979L4.71261 14.4388C4.24062 13.5041 4 12.4213 4 11.2089C4 10.3482 4.17584 9.45977 4.52752 8.56207C4.8792 7.65511 5.51777 6.72964 6.42473 5.82268C7.15585 5.09156 8.09057 4.51777 9.21039 4.11056C10.2747 3.72187 11.4038 3.44423 12.5791 3.26839C13.7359 3.1018 14.9113 3.00925 16.0774 3C17.0478 3 17.9442 3 18.7609 3.02867C18.8989 3.03351 19.0346 3.03917 19.1679 3.04579L19.1777 3.04627L19.9181 3.07404L19.9551 3.81441L19.9458 3.82367C20.0384 5.7579 20.0199 7.44225 19.8903 8.84896C19.7515 10.2557 19.5571 11.4865 19.298 12.4861C19.0296 13.5411 18.715 14.374 18.3355 15.0404C17.9561 15.7067 17.5859 16.2157 17.1972 16.6044C16.3643 17.4373 15.4758 18.0481 14.5503 18.4276C13.6249 18.807 12.6809 19.0014 11.7277 19.0014C11.0706 19.0014 10.4228 18.9273 9.80269 18.77C9.30262 18.645 8.80255 18.4557 8.31641 18.2067C8.19076 18.1424 8.06605 18.0741 7.9425 18.0019L7.86846 17.9556C7.8278 17.9265 7.67667 17.8056 7.49196 17.6577C7.38234 17.57 7.2609 17.4728 7.14371 17.3797C6.92968 17.8471 6.72648 18.3269 6.68308 18.8372C6.63453 19.408 6.67549 20.008 6.88074 20.5749C7.03806 20.9913 6.9744 21.5566 6.62833 21.7037C6.61346 21.7082 6.60022 21.7123 6.58809 21.7161C6.52477 21.7358 6.49173 21.7461 6.41406 21.7461C6.08089 21.7461 5.78008 21.5747 5.65977 21.2416C5.49201 20.7776 5.38439 20.304 5.33438 19.8306C5.26485 19.3065 5.29513 18.9739 5.32183 18.7218C5.3271 18.6584 5.33339 18.5953 5.34069 18.5322C5.34197 18.3131 5.40081 18.0357 5.48615 17.7491C5.60695 17.2799 5.78608 16.827 6.0207 16.4014C5.47468 15.8553 5.1846 15.3735 4.84218 14.6979ZM9.69067 5.4256C10.6562 5.07296 11.6915 4.81699 12.7825 4.65354C13.8768 4.49612 14.986 4.40897 16.083 4.4C17.0018 4.4 17.8252 4.40027 18.5703 4.42314C18.6331 6.0847 18.6065 7.51997 18.4966 8.71608C18.3618 10.0811 18.1768 11.2321 17.9428 12.1347L17.9412 12.1409C17.6923 13.1195 17.4168 13.8245 17.1189 14.3476C16.7787 14.945 16.48 15.3417 16.2072 15.6144C15.4835 16.3381 14.7465 16.8341 14.0192 17.1322C13.2505 17.4474 12.4864 17.6014 11.7277 17.6014C11.175 17.6014 10.6437 17.539 10.147 17.413L10.1422 17.4118C9.65523 17.29 9.15456 17.0867 8.66584 16.803L8.63965 16.7824C8.59692 16.7487 8.54078 16.7039 8.47403 16.6505L8.36856 16.5661C8.25848 16.478 8.13384 16.3783 8.01435 16.2834L7.85218 16.1546L7.99834 16.0054L7.99617 15.9969L8 15.9999L9.40114 14.641L9.43465 14.6261C11.215 13.8359 12.5914 14.9202 12.7548 15.049L12.762 15.0547L12.764 15.0562L12.7702 15.0609L12.7762 15.0662C12.8949 15.1709 13.0415 15.2197 13.1806 15.2197C13.3442 15.2197 13.505 15.1525 13.6359 15.015C13.8638 14.7651 13.8448 14.3833 13.5915 14.1512C13.1754 13.7698 12.3517 13.289 11.3299 13.1468L10.9319 13.0914L13.4002 10.6232C13.6367 10.3866 13.6367 9.99501 13.4002 9.75845C13.1636 9.5219 12.772 9.5219 12.5354 9.75845L9.98941 12.3045L9.94617 11.8865C9.83957 10.856 9.38541 10.0138 9.02023 9.57909C8.80656 9.32407 8.42401 9.29293 8.16349 9.5112C7.90546 9.72739 7.87104 10.1099 8.08603 10.3672C8.12997 10.4189 8.46177 10.8363 8.6419 11.485C8.82523 12.1453 8.85013 13.0433 8.26207 14.0234L7.05627 15.1539L7.05881 15.1567L7.05582 15.1562L6.89906 15.2962C6.57001 14.9446 6.37092 14.6171 6.09265 14.0684L5.96482 13.8127L5.96232 13.8078C5.60273 13.0956 5.4 12.2343 5.4 11.2089C5.4 10.5409 5.53624 9.82533 5.83107 9.07274L5.83282 9.06821C6.09634 8.3886 6.60561 7.6217 7.41468 6.81263C7.98014 6.24717 8.73124 5.77449 9.68883 5.42627L9.69067 5.4256Z" fill="#1A1A1A"/>
</svg>
