<svg width="24" height="24" viewBox="0 0 24 24" fill="none" xmlns="http://www.w3.org/2000/svg">
<path fill-rule="evenodd" clip-rule="evenodd" d="M19.9551 3.81447L19.9181 3.0741L19.1777 3.04633C18.2522 3.00006 17.2157 3.00006 16.0774 3.00006C14.9113 3.00932 13.7359 3.10186 12.5791 3.26845C11.4038 3.44429 10.2747 3.72193 9.21039 4.11062C8.09057 4.51783 7.15585 5.09162 6.42473 5.82274C5.51777 6.7297 4.8792 7.65517 4.52752 8.56213C4.17584 9.45983 4 10.3483 4 11.209C4 12.4213 4.24062 13.5041 4.71261 14.4389L4.84218 14.698C4.85156 14.7165 4.86085 14.7348 4.87006 14.753C5.19701 15.3985 5.42167 15.842 5.95274 16.3731C5.15684 17.8168 4.99951 19.5752 5.59181 21.2133C5.71212 21.5465 6.01752 21.7501 6.35069 21.7501C6.44324 21.7501 6.53578 21.7316 6.62833 21.7038C7.04479 21.5465 7.26691 21.0837 7.10958 20.6673C6.72088 19.5937 6.77641 18.4554 7.22989 17.4651C7.54455 17.715 7.80368 17.9094 7.86846 17.9556L7.9425 18.0019C8.54405 18.3536 9.17337 18.6127 9.80269 18.7701C10.4228 18.9274 11.0706 19.0014 11.7277 19.0014C12.6809 19.0014 13.6249 18.8071 14.5503 18.4276C15.4758 18.0482 16.3643 17.4374 17.1972 16.6045C17.5859 16.2158 17.9561 15.7067 18.3355 15.0404C18.715 14.3741 19.0296 13.5412 19.298 12.4861C19.5571 11.4866 19.7515 10.2557 19.8903 8.84902C20.0199 7.44231 20.0384 5.75796 19.9458 3.82373L19.9551 3.81447ZM12.7033 15.1356L12.7042 15.1362C12.7062 15.1378 12.7084 15.1396 12.7103 15.1413C12.8484 15.263 13.0188 15.3199 13.1809 15.3199C13.3734 15.3199 13.56 15.2403 13.7086 15.0841L13.7101 15.0825C13.9759 14.791 13.9524 14.3462 13.6594 14.0776C13.2292 13.6833 12.387 13.193 11.344 13.0479C11.3064 13.0427 11.275 13.0166 11.263 12.9806C11.2509 12.9447 11.2602 12.905 11.2871 12.8781C11.31 12.8303 12.7527 11.4021 13.4712 10.694C13.7468 10.4184 13.7468 9.96348 13.4712 9.68787C13.1956 9.41227 12.7406 9.41227 12.465 9.68787L10.2161 11.9368C10.1888 11.964 10.1483 11.9732 10.1119 11.9603C10.0756 11.9474 10.0499 11.9147 10.0459 11.8763C9.93711 10.8244 9.47407 9.9637 9.09713 9.51494C8.847 9.21645 8.4012 9.18196 8.09956 9.43468C7.79945 9.68613 7.75959 10.1322 8.01013 10.4321C8.04817 10.4768 8.37082 10.8816 8.54584 11.5119C8.72126 12.1436 8.74768 13.0009 8.19463 13.9417C8.12293 14.0284 7.64725 14.4798 7.26379 14.8436C6.9975 15.0963 6.77568 15.3068 6.76455 15.3236C6.76455 15.3236 6.94329 15.5761 7.21311 15.8009C7.48293 16.0258 7.80542 16.238 7.80542 16.238C8.25419 15.7596 9.2934 14.8584 9.49184 14.7104C11.2081 13.959 12.5334 15.0018 12.6933 15.1277L12.7008 15.1336L12.7033 15.1356Z" fill="#1A1A1A"/>
</svg>
