<svg width="24" height="24" viewBox="0 0 24 24" fill="none" xmlns="http://www.w3.org/2000/svg">
<path fill-rule="evenodd" clip-rule="evenodd" d="M19.9551 3.81441L19.9181 3.07404L19.1777 3.04627C18.2522 3 17.2157 3 16.0774 3C14.9113 3.00925 13.7359 3.1018 12.5791 3.26839C11.4038 3.44423 10.2747 3.72187 9.21039 4.11056C8.09057 4.51777 7.15585 5.09156 6.42473 5.82268C5.51777 6.72964 4.8792 7.65511 4.52752 8.56207C4.17584 9.45977 4 10.3482 4 11.2089C4 12.4213 4.24062 13.5041 4.71261 14.4388L4.84218 14.6979C4.85156 14.7164 4.86085 14.7348 4.87006 14.753C5.19701 15.3984 5.42167 15.842 5.95274 16.373L6.00391 16.4141C5.76928 16.8397 5.60694 17.2799 5.48615 17.7491C5.40081 18.0357 5.34196 18.3131 5.34069 18.5322C5.34069 18.5322 5.32709 18.6585 5.32183 18.7218C5.29513 18.9739 5.26484 19.3065 5.33438 19.8306C5.38439 20.304 5.49201 20.7776 5.65977 21.2416C5.78008 21.5747 6.08089 21.7461 6.41406 21.7461L6.42697 21.746C6.49561 21.7449 6.52839 21.7347 6.58809 21.7161C6.60022 21.7123 6.61346 21.7082 6.62833 21.7037C6.9744 21.5566 7.03806 20.9913 6.88073 20.5749C6.67549 20.008 6.63453 19.408 6.68308 18.8372C6.72648 18.3269 6.92968 17.8471 7.14371 17.3798L7.22989 17.4651C7.54455 17.715 7.80368 17.9093 7.86846 17.9556L7.9425 18.0019C8.54405 18.3535 9.17337 18.6127 9.80269 18.77C10.4228 18.9273 11.0706 19.0014 11.7277 19.0014C12.6809 19.0014 13.6249 18.807 14.5503 18.4276C15.4758 18.0481 16.3643 17.4373 17.1972 16.6044C17.5859 16.2157 17.9561 15.7067 18.3355 15.0404C18.715 14.374 19.0296 13.5411 19.298 12.4861C19.5571 11.4865 19.7515 10.2557 19.8903 8.84896C20.0199 7.44225 20.0384 5.7579 19.9458 3.82367L19.9551 3.81441ZM9.4346 14.6261L9.40109 14.641L7.77806 16.385C7.47267 16.1449 7.17717 15.8621 6.87219 15.5313L8.26202 14.0234C8.85008 13.0433 8.82518 12.1453 8.64185 11.485C8.46172 10.8363 8.12992 10.4189 8.08598 10.3672C7.87099 10.1099 7.90541 9.72739 8.16344 9.5112C8.42396 9.29293 8.80651 9.32407 9.02018 9.57909C9.38536 10.0138 9.83952 10.856 9.94612 11.8865L9.98936 12.3045L12.5354 9.75845C12.7719 9.5219 13.1636 9.5219 13.4001 9.75845C13.6367 9.99501 13.6367 10.3866 13.4001 10.6232L10.9319 13.0914L11.3299 13.1468C12.3517 13.289 13.1754 13.7698 13.5915 14.1512C13.8447 14.3833 13.8637 14.7651 13.6358 15.015C13.505 15.1525 13.3442 15.2197 13.1806 15.2197C13.0414 15.2197 12.8949 15.1709 12.7762 15.0662L12.7702 15.0609L12.764 15.0562L12.762 15.0547L12.7547 15.049C12.5913 14.9202 11.2149 13.8359 9.4346 14.6261Z" fill="#1A1A1A"/>
</svg>
