<svg width="24" height="24" viewBox="0 0 24 24" fill="none" xmlns="http://www.w3.org/2000/svg">
<path fill-rule="evenodd" clip-rule="evenodd" d="M19.9181 3.0741L19.9551 3.81447L19.9458 3.82373C20.0384 5.75796 20.0199 7.44231 19.8903 8.84902C19.7515 10.2557 19.5571 11.4866 19.298 12.4861C19.0296 13.5412 18.715 14.3741 18.3355 15.0404C17.9561 15.7067 17.5859 16.2158 17.1972 16.6045C16.3643 17.4374 15.4758 18.0482 14.5503 18.4276C13.6249 18.8071 12.6809 19.0014 11.7277 19.0014C11.0706 19.0014 10.4228 18.9274 9.80269 18.7701C9.17337 18.6127 8.54405 18.3536 7.9425 18.0019L7.86846 17.9556C7.80368 17.9094 7.54455 17.715 7.22989 17.4651C6.77641 18.4554 6.72088 19.5937 7.10958 20.6673C7.26691 21.0837 7.04479 21.5465 6.62833 21.7038C6.53578 21.7316 6.44324 21.7501 6.35069 21.7501C6.01752 21.7501 5.71212 21.5465 5.59181 21.2133C4.99951 19.5752 5.15684 17.8168 5.95274 16.3731C5.42167 15.842 5.19701 15.3985 4.87006 14.753C4.86085 14.7348 4.85156 14.7165 4.84218 14.698L4.71261 14.4389C4.24062 13.5041 4 12.4213 4 11.209C4 10.3483 4.17584 9.45983 4.52752 8.56213C4.8792 7.65517 5.51777 6.7297 6.42473 5.82274C7.15585 5.09162 8.09057 4.51783 9.21039 4.11062C10.2747 3.72193 11.4038 3.44429 12.5791 3.26845C13.7359 3.10186 14.9113 3.00932 16.0774 3.00006C17.2157 3.00006 18.2522 3.00006 19.1777 3.04633L19.9181 3.0741ZM7.07761 14.9428C6.86139 14.6948 6.73592 14.4527 6.44993 13.8885C6.10483 13.2077 5.8 12.2728 5.8 11.2089C5.8 10.5152 6.05316 9.70268 6.19226 9.25624L6.20577 9.21284C6.4441 8.59819 6.91643 7.87659 7.69752 7.09549C8.21565 6.57737 8.9143 6.13357 9.82553 5.80221C10.8071 5.3393 11.9963 5.17113 12.5764 5.08909C12.6897 5.07307 12.7798 5.06033 12.8406 5.04932C13.9171 4.89452 15.0073 4.8089 16.0846 4.80002C16.8519 4.80002 17.547 4.80026 18.1833 4.81342C18.2284 6.3028 18.1928 7.41326 18.0984 8.67803C18.004 9.94281 17.5299 12.202 17.2567 12.88L17.2048 13.0093C16.9312 13.6922 16.5244 14.7074 15.9244 15.3316C15.2852 15.9966 14.5381 16.4872 13.8675 16.7621C13.1435 17.059 12.4308 17.2014 11.7277 17.2014C11.2048 17.2014 10.7068 17.1424 10.2454 17.0253C9.86709 16.9472 9.17554 16.618 8.87706 16.4631C8.79649 16.4083 8.57813 16.25 8.34928 16.0555L8.30607 16.0188L9.51579 14.809C11.1859 14.0678 12.4768 15.0847 12.6316 15.2066C12.6372 15.2111 12.6413 15.2143 12.6439 15.2163C12.8012 15.3551 12.9956 15.4199 13.1807 15.4199C13.4028 15.4199 13.6156 15.3273 13.7822 15.1515C14.0876 14.8183 14.0598 14.3093 13.7267 14.0039C13.2825 13.5967 12.4218 13.0969 11.3575 12.9489L13.5416 10.7647C13.8562 10.4501 13.8562 9.93182 13.5416 9.61716C13.2269 9.3025 12.7087 9.3025 12.394 9.61716L10.1451 11.8661C10.0341 10.7925 9.56207 9.91331 9.17337 9.45058C8.88648 9.10816 8.37747 9.07114 8.03504 9.35803C7.69262 9.64493 7.64635 10.1539 7.93324 10.4964C7.98877 10.5611 9.20114 12.0697 8.09057 13.9206V13.9298L7.07761 14.9428Z" fill="#1A1A1A"/>
</svg>
