<svg width="24" height="24" viewBox="0 0 24 24" fill="none" xmlns="http://www.w3.org/2000/svg">
<path d="M1.60205 16.1453C1.30461 15.9993 0.945074 16.122 0.799002 16.4194C0.65293 16.7168 0.775636 17.0764 1.07307 17.2225L4.17954 18.748C4.47697 18.8941 4.83651 18.7714 4.98258 18.474L6.50678 15.3703C6.65285 15.0729 6.53014 14.7134 6.23271 14.5673C5.93527 14.4212 5.57573 14.5439 5.42966 14.8414L4.54399 16.6448L3.90211 14.7641C2.37474 10.2888 4.76449 5.4227 9.23975 3.89533C11.4616 3.13703 13.7786 3.34382 15.7375 4.29262C16.0357 4.43708 16.3946 4.31242 16.539 4.01419C16.6835 3.71596 16.5588 3.3571 16.2606 3.21264C14.0289 2.13169 11.385 1.8952 8.85215 2.75965C3.74967 4.50108 1.025 10.0492 2.76643 15.1516L3.40831 17.0324L1.60205 16.1453Z" fill="#1A1A1A"/>
<path d="M22.379 7.85458C22.6765 8.00066 23.036 7.87795 23.1821 7.58051C23.3282 7.28307 23.2055 6.92354 22.908 6.77746L19.8016 5.25188C19.5041 5.10581 19.1446 5.22851 18.9985 5.52595L17.4743 8.62958C17.3282 8.92702 17.451 9.28656 17.7484 9.43263C18.0458 9.5787 18.4054 9.456 18.5514 9.15856L19.4371 7.35512L20.079 9.23587C21.6064 13.7111 19.2166 18.5772 14.7413 20.1046C12.5195 20.8629 10.2025 20.6561 8.24363 19.7073C7.9454 19.5628 7.58654 19.6875 7.44209 19.9857C7.29763 20.284 7.42229 20.6428 7.72052 20.7873C9.95217 21.8682 12.5961 22.1047 15.1289 21.2403C20.2314 19.4988 22.9561 13.9508 21.2147 8.84827L20.5728 6.96753L22.379 7.85458Z" fill="#1A1A1A"/>
<path d="M11.625 6.5625V7.42748C10.2954 7.63667 9.18749 8.64681 9.18749 9.99544C9.18749 10.7823 9.59246 11.3608 10.1338 11.7648C10.6573 12.1555 11.3348 12.4069 11.9896 12.5839C12.0151 12.5908 12.0406 12.5958 12.066 12.599C12.578 12.7478 13.0172 12.9282 13.3382 13.1493C13.7154 13.4091 13.875 13.6819 13.875 14.0046C13.875 14.7079 13.0993 15.4875 11.8523 15.4875C11.004 15.4875 10.3435 15.1033 10.0367 14.6225C9.86963 14.3606 9.52187 14.2837 9.25996 14.4508C8.99806 14.6179 8.92119 14.9656 9.08828 15.2275C9.59747 16.0257 10.5472 16.5419 11.625 16.6058V17.4375C11.625 17.7482 11.8768 18 12.1875 18C12.4982 18 12.75 17.7482 12.75 17.4375V16.5027C13.9893 16.1953 15 15.2654 15 14.0046C15 13.1975 14.5503 12.6181 13.9764 12.2228C13.4211 11.8403 12.7027 11.5924 12.0024 11.4168C11.5175 11.2672 11.1048 11.0857 10.8066 10.8631C10.47 10.612 10.3125 10.3382 10.3125 9.99544C10.3125 9.25465 11.0446 8.51248 12.1364 8.51248C12.8865 8.51248 13.4821 8.87945 13.7653 9.36041C13.9229 9.62811 14.2677 9.71732 14.5354 9.55968C14.8031 9.40204 14.8923 9.05724 14.7347 8.78955C14.3268 8.09686 13.6031 7.6052 12.75 7.44438V6.5625C12.75 6.25184 12.4982 6 12.1875 6C11.8768 6 11.625 6.25184 11.625 6.5625Z" fill="#1A1A1A"/>
</svg>
