<svg width="24" height="24" viewBox="0 0 24 24" fill="none" xmlns="http://www.w3.org/2000/svg">
<path d="M11 15.5V11C11 10.4477 11.4477 10 12 10C12.5523 10 13 10.4477 13 11V15.5C13 16.0523 12.5523 16.5 12 16.5C11.4477 16.5 11 16.0523 11 15.5Z" fill="#1A1A1A"/>
<path d="M12 9.05C12.6351 9.05 13.15 8.53513 13.15 7.9C13.15 7.26487 12.6351 6.75 12 6.75C11.3649 6.75 10.85 7.26487 10.85 7.9C10.85 8.53513 11.3649 9.05 12 9.05Z" fill="#1A1A1A"/>
<path fill-rule="evenodd" clip-rule="evenodd" d="M12 22C6.47715 22 2 17.5228 2 12C2 6.47715 6.47715 2 12 2C17.5228 2 22 6.47715 22 12C22 17.5228 17.5228 22 12 22ZM12 20.4C7.36081 20.4 3.6 16.6392 3.6 12C3.6 7.36081 7.36081 3.6 12 3.6C16.6392 3.6 20.4 7.36081 20.4 12C20.4 16.6392 16.6392 20.4 12 20.4Z" fill="#1A1A1A"/>
</svg>
