<svg width="24" height="24" viewBox="0 0 24 24" fill="none" xmlns="http://www.w3.org/2000/svg">
<path d="M9.24998 10.0001C8.83576 10.0001 8.49998 10.3359 8.49998 10.7501C8.49998 11.1643 8.83576 11.5001 9.24998 11.5001L14.75 11.5001C15.1642 11.5001 15.5 11.1643 15.5 10.7501C15.5 10.3359 15.1642 10.0001 14.75 10.0001L9.24998 10.0001Z" fill="#1A1A1A"/>
<path d="M8.49998 13.7501C8.49998 13.3359 8.83576 13.0001 9.24998 13.0001L14.75 13.0001C15.1642 13.0001 15.5 13.3359 15.5 13.7501C15.5 14.1643 15.1642 14.5001 14.75 14.5001L9.24998 14.5001C8.83576 14.5001 8.49998 14.1643 8.49998 13.7501Z" fill="#1A1A1A"/>
<path d="M9.24998 16.0001C8.83576 16.0001 8.49998 16.3359 8.49998 16.7501C8.49998 17.1643 8.83576 17.5001 9.24998 17.5001H12.75C13.1642 17.5001 13.5 17.1643 13.5 16.7501C13.5 16.3359 13.1642 16.0001 12.75 16.0001H9.24998Z" fill="#1A1A1A"/>
<path fill-rule="evenodd" clip-rule="evenodd" d="M6.24998 2.1001C5.61485 2.1001 5.09998 2.61497 5.09998 3.2501V20.7501C5.09998 21.3852 5.61485 21.9001 6.24998 21.9001H17.75C18.3851 21.9001 18.9 21.3852 18.9 20.7501V7.10365C18.9 6.79865 18.7788 6.50615 18.5631 6.29048L14.7096 2.43692C14.4939 2.22126 14.2014 2.1001 13.8964 2.1001H6.24998ZM6.89998 20.1001V3.9001H13.1V6.75012C13.1 7.38525 13.6148 7.90012 14.25 7.90012H17.1V20.1001H6.89998Z" fill="#1A1A1A"/>
</svg>
