<svg width="24" height="24" viewBox="0 0 24 24" fill="none" xmlns="http://www.w3.org/2000/svg">
<path fill-rule="evenodd" clip-rule="evenodd" d="M5.09998 3.2501C5.09998 2.61497 5.61485 2.1001 6.24998 2.1001H13.8964C14.2014 2.1001 14.4939 2.22126 14.7096 2.43692L18.5631 6.29048C18.7788 6.50615 18.9 6.79865 18.9 7.10365V20.7501C18.9 21.3852 18.3851 21.9001 17.75 21.9001H6.24998C5.61485 21.9001 5.09998 21.3852 5.09998 20.7501V3.2501ZM6.89998 3.9001V20.1001H17.1V7.37289L13.6272 3.9001H6.89998Z" fill="#1A1A1A"/>
<path d="M14 3V6.75C14 6.88807 14.1119 7 14.25 7H18" fill="#1A1A1A"/>
<path fill-rule="evenodd" clip-rule="evenodd" d="M13.1 6.75V3H14.9V6.1H18V7.9H14.25C13.6148 7.9 13.1 7.38513 13.1 6.75Z" fill="#1A1A1A"/>
<path fill-rule="evenodd" clip-rule="evenodd" d="M12.0909 11.05C11.5139 11.05 11.25 11.4291 11.25 11.6637C11.25 11.7442 11.2725 11.8251 11.4287 11.9416C11.6084 12.0757 11.8983 12.1984 12.2866 12.3033C12.6865 12.4114 12.923 12.8231 12.8149 13.223C12.7069 13.6229 12.2951 13.8594 11.8952 13.7513C11.4426 13.629 10.9371 13.4464 10.5316 13.1438C10.1025 12.8236 9.75 12.3363 9.75 11.6637C9.75 10.3921 10.9107 9.55005 12.0909 9.55005C12.9541 9.55005 13.7379 9.97607 14.1463 10.6695C14.3565 11.0264 14.2375 11.4861 13.8806 11.6963C13.5237 11.9065 13.0639 11.7875 12.8537 11.4306C12.7381 11.2342 12.47 11.05 12.0909 11.05Z" fill="#1A1A1A"/>
<path fill-rule="evenodd" clip-rule="evenodd" d="M11.9015 14.95C12.6124 14.95 12.875 14.521 12.875 14.3363C12.875 14.2827 12.8653 14.203 12.6794 14.075C12.4738 13.9333 12.1469 13.8069 11.72 13.7004C11.3181 13.6001 11.0736 13.193 11.1738 12.7911C11.2741 12.3892 11.6812 12.1447 12.0831 12.245C12.5671 12.3658 13.102 12.5446 13.5303 12.8397C13.9785 13.1484 14.375 13.6368 14.375 14.3363C14.375 15.6579 13.0943 16.45 11.9015 16.45C11.0139 16.45 10.1852 16.0469 9.74271 15.3533C9.51993 15.0041 9.62242 14.5404 9.97163 14.3177C10.3208 14.0949 10.7845 14.1974 11.0073 14.5466C11.1325 14.7428 11.4434 14.95 11.9015 14.95Z" fill="#1A1A1A"/>
<path fill-rule="evenodd" clip-rule="evenodd" d="M12 11C11.5858 11 11.25 10.6642 11.25 10.25L11.25 9.25C11.25 8.83579 11.5858 8.5 12 8.5C12.4142 8.5 12.75 8.83579 12.75 9.25L12.75 10.25C12.75 10.6642 12.4142 11 12 11Z" fill="#1A1A1A"/>
<path fill-rule="evenodd" clip-rule="evenodd" d="M12 17.5C11.5858 17.5 11.25 17.1642 11.25 16.75L11.25 15.75C11.25 15.3358 11.5858 15 12 15C12.4142 15 12.75 15.3358 12.75 15.75L12.75 16.75C12.75 17.1642 12.4142 17.5 12 17.5Z" fill="#1A1A1A"/>
</svg>
