<svg width="24" height="24" viewBox="0 0 24 24" fill="none" xmlns="http://www.w3.org/2000/svg">
<path fill-rule="evenodd" clip-rule="evenodd" d="M16.5 7.5C16.5 6.67157 15.8284 6 15 6H6C5.17157 6 4.5 6.67157 4.5 7.5V20.1169C4.5 21.2828 5.77196 22.003 6.77174 21.4031L10.5 19.1662L14.2283 21.4031C15.228 22.003 16.5 21.2828 16.5 20.1169V7.5ZM14.5 8V19.2338L11.2717 17.2969C10.7967 17.0118 10.2033 17.0118 9.72826 17.2969L6.5 19.2338V8H14.5Z" fill="#1A1A1A"/>
<path fill-rule="evenodd" clip-rule="evenodd" d="M9 3.5C9 2.94772 9.44772 2.5 10 2.5H18C19.1046 2.5 20 3.39543 20 4.5V15.5C20 16.0523 19.5523 16.5 19 16.5C18.4477 16.5 18 16.0523 18 15.5V4.5H10C9.44772 4.5 9 4.05228 9 3.5Z" fill="#1A1A1A"/>
</svg>
