<svg width="24" height="24" viewBox="0 0 24 24" fill="none" xmlns="http://www.w3.org/2000/svg">
<path d="M13.33 9.36341C13.33 8.83089 12.9454 8.26063 12.0041 8.26063C11.5489 8.26063 11.2498 8.42963 11.058 8.59172C10.9584 8.67588 10.8871 8.75943 10.8431 8.81805C10.8214 8.84694 10.8074 8.86839 10.8009 8.87886L10.7977 8.88397C10.5602 9.31316 10.0213 9.47368 9.58688 9.242C9.14831 9.00808 8.9824 8.46292 9.21632 8.02435L10.0104 8.4479C9.21632 8.02435 9.21632 8.02435 9.21632 8.02435L9.21719 8.02272L9.21812 8.02099L9.22016 8.01722L9.22499 8.00843L9.23765 7.98606C9.24743 7.9691 9.25996 7.94804 9.27534 7.9235C9.30602 7.8745 9.34837 7.81102 9.40316 7.73798C9.5121 7.59273 9.67415 7.40446 9.89624 7.21681C10.3478 6.83527 11.0455 6.46063 12.0041 6.46063C13.8902 6.46063 15.13 7.78816 15.13 9.36341C15.13 10.1409 14.8313 10.7079 14.3504 11.1877C14.018 11.5194 13.5559 11.8449 13.0712 12.1864L12.9041 12.3043V13.2387C12.9041 13.7358 12.5011 14.1387 12.0041 14.1387C11.507 14.1387 11.1041 13.7358 11.1041 13.2387V12.0966C11.1041 11.6481 11.3197 11.2236 11.688 10.9602C11.8399 10.8517 11.9777 10.7542 12.1032 10.6655C12.5691 10.3361 12.8656 10.1265 13.0791 9.91348C13.2781 9.71491 13.33 9.58842 13.33 9.36341Z" fill="#1A1A1A"/>
<path d="M12 17.55C12.6351 17.55 13.15 17.0351 13.15 16.4C13.15 15.7649 12.6351 15.25 12 15.25C11.3649 15.25 10.85 15.7649 10.85 16.4C10.85 17.0351 11.3649 17.55 12 17.55Z" fill="#1A1A1A"/>
<path fill-rule="evenodd" clip-rule="evenodd" d="M12 22C6.47715 22 2 17.5228 2 12C2 6.47715 6.47715 2 12 2C17.5228 2 22 6.47715 22 12C22 17.5228 17.5228 22 12 22ZM12 20.4C7.36081 20.4 3.6 16.6392 3.6 12C3.6 7.36081 7.36081 3.6 12 3.6C16.6392 3.6 20.4 7.36081 20.4 12C20.4 16.6392 16.6392 20.4 12 20.4Z" fill="#1A1A1A"/>
</svg>
