<svg width="24" height="24" viewBox="0 0 24 24" fill="none" xmlns="http://www.w3.org/2000/svg">
<path fill-rule="evenodd" clip-rule="evenodd" d="M4.02159 11.2128C3.52879 11.2128 3.1293 10.8133 3.1293 10.3206L3.1293 3.39223C3.1293 2.89943 3.52879 2.49994 4.02159 2.49994C4.51438 2.49994 4.91387 2.89943 4.91387 3.39223V5.57909C6.23178 4.07761 8.16524 3.12979 10.3201 3.12979C10.8129 3.12979 11.2124 3.52928 11.2124 4.02208C11.2124 4.51487 10.8129 4.91436 10.3201 4.91436C7.33431 4.91436 4.91387 7.3348 4.91387 10.3206C4.91387 10.8114 4.5175 11.2097 4.02736 11.2128L4.02159 11.2128ZM13.6792 4.91439C13.1864 4.91439 12.7869 4.5149 12.7869 4.0221C12.7869 3.52931 13.1864 3.12982 13.6792 3.12982H20.6075C21.1003 3.12982 21.4998 3.52931 21.4998 4.0221C21.4998 4.5149 21.1003 4.91439 20.6075 4.91439H18.4206C19.9221 6.2323 20.8699 8.16575 20.8699 10.3206C20.8699 10.8134 20.4704 11.2129 19.9776 11.2129C19.4848 11.2129 19.0853 10.8134 19.0853 10.3206C19.0853 7.33482 16.6649 4.91439 13.6792 4.91439ZM19.0858 13.6799C19.0858 13.1871 19.4853 12.7876 19.9781 12.7876C20.4709 12.7876 20.8704 13.1871 20.8704 13.6799V20.6083C20.8704 21.1011 20.4709 21.5005 19.9781 21.5005C19.4853 21.5005 19.0858 21.1011 19.0858 20.6083V18.4214C17.7679 19.9229 15.8345 20.8707 13.6796 20.8707C13.1868 20.8707 12.7874 20.4712 12.7874 19.9784C12.7874 19.4856 13.1868 19.0861 13.6796 19.0861C16.6654 19.0861 19.0858 16.6657 19.0858 13.6799ZM10.3206 19.0858C10.8133 19.0858 11.2128 19.4853 11.2128 19.9781C11.2128 20.4709 10.8133 20.8704 10.3206 20.8704H3.39223C2.89943 20.8704 2.49994 20.4709 2.49994 19.9781C2.49994 19.4853 2.89943 19.0858 3.39223 19.0858H5.57909C4.07761 17.7679 3.12979 15.8345 3.12979 13.6796C3.12979 13.1868 3.52928 12.7874 4.02208 12.7874C4.51487 12.7874 4.91436 13.1868 4.91436 13.6796C4.91436 16.6654 7.3348 19.0858 10.3206 19.0858ZM11.0288 15.3595C11.0288 15.8958 11.4636 16.3305 11.9999 16.3305C12.5361 16.3305 12.9709 15.8958 12.9709 15.3595V7.80131C12.9709 7.26504 12.5361 6.8303 11.9999 6.8303C11.4636 6.8303 11.0288 7.26504 11.0288 7.80131V15.3595ZM8.64048 16.3305C8.1042 16.3305 7.66946 15.8958 7.66946 15.3595L7.66946 9.48091C7.66946 8.94463 8.1042 8.50989 8.64048 8.50989C9.17675 8.50989 9.61149 8.94463 9.61149 9.48091V15.3595C9.61149 15.8958 9.17675 16.3305 8.64048 16.3305ZM14.3877 15.3595C14.3877 15.8958 14.8224 16.3305 15.3587 16.3305C15.895 16.3305 16.3297 15.8958 16.3297 15.3595V11.1605C16.3297 10.6242 15.895 10.1895 15.3587 10.1895C14.8224 10.1895 14.3877 10.6242 14.3877 11.1605V15.3595Z" fill="#1A1A1A"/>
</svg>
