<svg width="24" height="24" viewBox="0 0 24 24" fill="none" xmlns="http://www.w3.org/2000/svg">
<path fill-rule="evenodd" clip-rule="evenodd" d="M9 4C9 3.44772 8.55228 3 8 3C7.44772 3 7 3.44772 7 4V5H5.5C4.11929 5 3 6.11929 3 7.5V18.5C3 19.8807 4.11929 21 5.5 21H18.5C19.8807 21 21 19.8807 21 18.5V7.5C21 6.11929 19.8807 5 18.5 5H17V4C17 3.44772 16.5523 3 16 3C15.4477 3 15 3.44772 15 4V5H9V4ZM16 9C15.4477 9 15 8.55228 15 8V7H9V8C9 8.55228 8.55228 9 8 9C7.44771 9 7 8.55228 7 8V7H5.5C5.22386 7 5 7.22386 5 7.5V18.5C5 18.7761 5.22386 19 5.5 19H18.5C18.7761 19 19 18.7761 19 18.5V7.5C19 7.22386 18.7761 7 18.5 7H17V8C17 8.55228 16.5523 9 16 9ZM7 16C7 16.5523 7.44772 17 8 17C8.55228 17 9 16.5523 9 16V12C9 11.4477 8.55229 11 8 11C7.44772 11 7 11.4477 7 12V16ZM16 17C15.4477 17 15 16.5523 15 16V12C15 11.4477 15.4477 11 16 11C16.5523 11 17 11.4477 17 12V16C17 16.5523 16.5523 17 16 17ZM11 16C11 16.5523 11.4477 17 12 17C12.5523 17 13 16.5523 13 16V12C13 11.4477 12.5523 11 12 11C11.4477 11 11 11.4477 11 12V16Z" fill="#1A1A1A"/>
</svg>
