<svg width="24" height="24" viewBox="0 0 24 24" fill="none" xmlns="http://www.w3.org/2000/svg">
<path d="M15.2929 4.29289C15.6834 3.90237 16.3166 3.90237 16.7071 4.29289L20.4142 8L16.7071 11.7071C16.3166 12.0976 15.6834 12.0976 15.2929 11.7071C14.9024 11.3166 14.9024 10.6834 15.2929 10.2929L16.5858 9H5.00003C4.44774 9 4.00003 8.55228 4.00003 8C4.00003 7.44772 4.44774 7 5.00003 7H16.5858L15.2929 5.70711C14.9024 5.31658 14.9024 4.68342 15.2929 4.29289Z" fill="#1A1A1A"/>
<path d="M8.70714 12.2929C8.31661 11.9024 7.68345 11.9024 7.29292 12.2929L3.58582 16L7.29292 19.7071C7.68345 20.0976 8.31661 20.0976 8.70714 19.7071C9.09766 19.3166 9.09766 18.6834 8.70714 18.2929L7.41424 17H13C13.5523 17 14 16.5523 14 16C14 15.4477 13.5523 15 13 15H7.41424L8.70714 13.7071C9.09766 13.3166 9.09766 12.6834 8.70714 12.2929Z" fill="#1A1A1A"/>
<path d="M17 17C17.5523 17 18 16.5523 18 16C18 15.4477 17.5523 15 17 15C16.4477 15 16 15.4477 16 16C16 16.5523 16.4477 17 17 17Z" fill="#1A1A1A"/>
</svg>
