<svg width="24" height="24" viewBox="0 0 24 24" fill="none" xmlns="http://www.w3.org/2000/svg">
<rect x="0.75" y="6" width="22.5" height="12" rx="0.75" fill="#F1F3F4" stroke="#2A3134" stroke-width="1.5" stroke-linecap="round" stroke-linejoin="round"/>
<path d="M6.72371 9.59059C6.53883 9.42632 6.31492 9.30723 6.06431 9.22874V9C6.06431 8.72386 5.84045 8.5 5.56431 8.5H5.00213C4.72599 8.5 4.50213 8.72386 4.50213 9V9.1974C4.20804 9.27275 3.95688 9.39941 3.7585 9.57803C3.45652 9.84993 3.31644 10.2079 3.31644 10.5666C3.31644 10.8498 3.40176 11.1111 3.56403 11.3285C3.49922 11.3545 3.43992 11.394 3.39043 11.4452C3.29621 11.5427 3.24564 11.6743 3.2503 11.8098C3.26509 12.2402 3.44 12.6199 3.76812 12.8939C3.97468 13.0664 4.22515 13.1833 4.50213 13.2546V13.5C4.50213 13.7761 4.72599 14 5.00213 14H5.56431C5.84045 14 6.06431 13.7761 6.06431 13.5V13.2534C6.32587 13.1853 6.5626 13.0762 6.75798 12.9175C7.077 12.6583 7.25 12.294 7.25 11.8789C7.25 11.5524 7.14212 11.2744 6.95515 11.0564C6.99908 11.0315 7.03942 11 7.07455 10.9623C7.16911 10.8611 7.21741 10.7251 7.20795 10.5869C7.18147 10.2004 7.0178 9.85189 6.72371 9.59059Z" fill="white" stroke="#71767D" stroke-linecap="round" stroke-linejoin="round"/>
<path d="M17.625 8.625C17.4179 8.625 17.25 8.79289 17.25 9C17.25 9.20711 17.4179 9.375 17.625 9.375H20.625C20.8321 9.375 21 9.20711 21 9C21 8.79289 20.8321 8.625 20.625 8.625H17.625Z" fill="#71767D"/>
<path d="M9.75 11.25C9.75 11.0429 9.91789 10.875 10.125 10.875H20.625C20.8321 10.875 21 11.0429 21 11.25C21 11.4571 20.8321 11.625 20.625 11.625H10.125C9.91789 11.625 9.75 11.4571 9.75 11.25Z" fill="#71767D"/>
<path d="M10.125 13.125C9.91789 13.125 9.75 13.2929 9.75 13.5C9.75 13.7071 9.91789 13.875 10.125 13.875H16.125C16.3321 13.875 16.5 13.7071 16.5 13.5C16.5 13.2929 16.3321 13.125 16.125 13.125H10.125Z" fill="#71767D"/>
<path d="M2.625 15.75C2.41789 15.75 2.25 15.9179 2.25 16.125C2.25 16.3321 2.41789 16.5 2.625 16.5H7.875C8.08211 16.5 8.25 16.3321 8.25 16.125C8.25 15.9179 8.08211 15.75 7.875 15.75H2.625Z" fill="#71767D"/>
<path d="M10.125 15.75C9.91789 15.75 9.75 15.9179 9.75 16.125C9.75 16.3321 9.91789 16.5 10.125 16.5H12.75C12.9571 16.5 13.125 16.3321 13.125 16.125C13.125 15.9179 12.9571 15.75 12.75 15.75H10.125Z" fill="#71767D"/>
<path d="M13.7626 16.125C13.7626 15.9179 13.9305 15.75 14.1376 15.75H16.0126C16.2197 15.75 16.3876 15.9179 16.3876 16.125C16.3876 16.3321 16.2197 16.5 16.0126 16.5H14.1376C13.9305 16.5 13.7626 16.3321 13.7626 16.125Z" fill="#71767D"/>
<path d="M17.625 15.75C17.4179 15.75 17.25 15.9179 17.25 16.125C17.25 16.3321 17.4179 16.5 17.625 16.5H20.625C20.8321 16.5 21 16.3321 21 16.125C21 15.9179 20.8321 15.75 20.625 15.75H17.625Z" fill="#71767D"/>
</svg>
