<svg width="24" height="24" viewBox="0 0 24 24" fill="none" xmlns="http://www.w3.org/2000/svg">
<path fill-rule="evenodd" clip-rule="evenodd" d="M10.15 5.89988C6.60221 6.31981 3.85002 9.33878 3.85002 12.9999C3.85002 16.9488 7.05119 20.1499 11 20.1499C14.6612 20.1499 17.6802 17.3978 18.1001 13.8499H11.5C10.7544 13.8499 10.15 13.2455 10.15 12.4999V5.89988ZM10.4476 4.16693C11.2462 4.11768 11.85 4.7684 11.85 5.49995V12.1499H18.5C19.2316 12.1499 19.8823 12.7538 19.833 13.5524C19.5474 18.1832 15.7023 21.8499 11 21.8499C6.1123 21.8499 2.15002 17.8877 2.15002 12.9999C2.15002 8.29771 5.8168 4.45255 10.4476 4.16693Z" fill="#1A1A1A"/>
<path fill-rule="evenodd" clip-rule="evenodd" d="M12.9 2.74995C12.9 2.0184 13.5038 1.36768 14.3024 1.41693C18.7506 1.69129 22.3087 5.24936 22.583 9.69753C22.6323 10.4961 21.9816 11.0999 21.25 11.0999H14.25C13.5044 11.0999 12.9 10.4955 12.9 9.74994V2.74995ZM14.6 3.14988V9.39995H20.8501C20.4631 6.13089 17.8691 3.53685 14.6 3.14988Z" fill="#1A1A1A"/>
</svg>
