<svg width="24" height="24" viewBox="0 0 24 24" fill="none" xmlns="http://www.w3.org/2000/svg">
<path d="M7.75 11.5C7.33579 11.5 7 11.8358 7 12.25C7 12.6642 7.33579 13 7.75 13L16.25 13C16.6642 13 17 12.6642 17 12.25C17 11.8358 16.6642 11.5 16.25 11.5L7.75 11.5Z" fill="#1A1A1A"/>
<path d="M7 15.25C7 14.8358 7.33579 14.5 7.75 14.5L13.25 14.5C13.6642 14.5 14 14.8358 14 15.25C14 15.6642 13.6642 16 13.25 16L7.75 16C7.33579 16 7 15.6642 7 15.25Z" fill="#1A1A1A"/>
<path fill-rule="evenodd" clip-rule="evenodd" d="M18.5 3H5.5C4.11929 3 3 4.11929 3 5.5V18.5C3 19.8807 4.11929 21 5.5 21H18.5C19.8807 21 21 19.8807 21 18.5V5.5C21 4.11929 19.8807 3 18.5 3ZM5 5.5C5 5.22386 5.22386 5 5.5 5H18.5C18.7761 5 19 5.22386 19 5.5V6.5H5V5.5ZM5 8V18.5C5 18.7761 5.22386 19 5.5 19H18.5C18.7761 19 19 18.7761 19 18.5V8H5Z" fill="#1A1A1A"/>
</svg>
