<svg width="24" height="24" viewBox="0 0 24 24" fill="none" xmlns="http://www.w3.org/2000/svg">
<path d="M5.24995 4.19995H16.75C17.989 4.19995 19.0555 4.93879 19.5329 5.99994L5.24995 5.99995C4.5596 5.99995 3.99995 6.5596 3.99995 7.24995L3.99994 16.5329C2.93879 16.0555 2.19995 14.989 2.19995 13.75V7.24995C2.19995 5.56548 3.56548 4.19995 5.24995 4.19995Z" fill="#1A1A1A"/>
<path d="M13.7499 14.4999C13.3357 14.4999 12.9999 14.8357 12.9999 15.2499C12.9999 15.6642 13.3357 15.9999 13.7499 15.9999H17.2499C17.6642 15.9999 17.9999 15.6642 17.9999 15.2499C17.9999 14.8357 17.6642 14.4999 17.2499 14.4999H13.7499Z" fill="#1A1A1A"/>
<path fill-rule="evenodd" clip-rule="evenodd" d="M19.5 7.19995H7.49995C6.2297 7.19995 5.19995 8.2297 5.19995 9.49995V17.5C5.19995 18.7702 6.2297 19.8 7.49995 19.8H19.5C20.7702 19.8 21.8 18.7702 21.8 17.5V9.49995C21.8 8.22969 20.7702 7.19995 19.5 7.19995ZM6.99995 9.49995C6.99995 9.22381 7.22381 8.99995 7.49995 8.99995H19.5C19.7761 8.99995 20 9.22381 20 9.49995V10.95L6.99995 10.95V9.49995ZM6.99995 12.75L20 12.75V17.5C20 17.7761 19.7761 18 19.5 18H7.49995C7.22381 18 6.99995 17.7761 6.99995 17.5V12.75Z" fill="#1A1A1A"/>
</svg>
