<svg width="24" height="24" viewBox="0 0 24 24" fill="none" xmlns="http://www.w3.org/2000/svg">
<path d="M9.4889 2.32276C9.4889 2.32275 9.4889 2.32276 9.4889 2.32276C9.4889 3.98728 10.6922 5.20036 12.0167 5.20036C13.3412 5.20036 14.5445 3.98731 14.5445 2.32278C14.5445 2.32277 14.5445 2.32279 14.5445 2.32278L16.0957 2.32276C16.0957 2.32275 16.0957 2.32276 16.0957 2.32276C16.0957 4.6934 14.3411 6.75152 12.0167 6.75152C9.69237 6.75152 7.93774 4.69342 7.93774 2.32278C7.93774 2.32277 7.93774 2.32279 7.93774 2.32278L9.4889 2.32276Z" fill="#1A1A1A"/>
<path d="M9.54689 2.65424C9.54689 3.13166 9.15986 3.51869 8.68244 3.51869C8.20502 3.51869 7.81799 3.13166 7.81799 2.65424C7.81799 2.17682 8.20502 1.78979 8.68244 1.78979C9.15986 1.78979 9.54689 2.17682 9.54689 2.65424Z" fill="#1A1A1A"/>
<path d="M16.1685 2.65424C16.1685 3.13166 15.7814 3.51869 15.304 3.51869C14.8266 3.51869 14.4396 3.13166 14.4396 2.65424C14.4396 2.17682 14.8266 1.78979 15.304 1.78979C15.7814 1.78979 16.1685 2.17682 16.1685 2.65424Z" fill="#1A1A1A"/>
<path d="M13.4008 2.73761C13.4008 3.51497 12.7706 4.14514 11.9932 4.14514C11.2159 4.14514 10.5857 3.51497 10.5857 2.73761C10.5857 1.96025 11.2159 1.33008 11.9932 1.33008C12.7706 1.33008 13.4008 1.96025 13.4008 2.73761Z" fill="#1A1A1A"/>
<path d="M14.4981 21.6778C14.4981 20.0132 13.2948 18.8002 11.9703 18.8002C10.6458 18.8002 9.44252 20.0132 9.44251 21.6778L7.89136 21.6778C7.89136 19.3071 9.64598 17.249 11.9703 17.249C14.2947 17.249 16.0493 19.3071 16.0493 21.6778H14.4981Z" fill="#1A1A1A"/>
<path d="M14.4402 21.3462C14.4402 20.8688 14.8272 20.4818 15.3046 20.4818C15.782 20.4818 16.1691 20.8688 16.1691 21.3462C16.1691 21.8237 15.782 22.2107 15.3046 22.2107C14.8272 22.2107 14.4402 21.8237 14.4402 21.3462Z" fill="#1A1A1A"/>
<path d="M7.81853 21.3462C7.81853 20.8688 8.20556 20.4818 8.68298 20.4818C9.1604 20.4818 9.54742 20.8688 9.54742 21.3462C9.54742 21.8237 9.1604 22.2107 8.68298 22.2107C8.20556 22.2107 7.81853 21.8237 7.81853 21.3462Z" fill="#1A1A1A"/>
<path d="M10.5861 21.2626C10.5861 20.4853 11.2162 19.8551 11.9936 19.8551C12.771 19.8551 13.4011 20.4853 13.4011 21.2626C13.4011 22.04 12.771 22.6702 11.9936 22.6702C11.2162 22.6702 10.5861 22.04 10.5861 21.2626Z" fill="#1A1A1A"/>
<path d="M21.5481 14.7055C20.1846 13.7508 18.5007 14.0407 17.7411 15.1257C16.9814 16.2106 17.2848 17.892 18.6483 18.8468L17.7586 20.1174C15.8167 18.7576 15.1373 16.1399 16.4704 14.2359C17.8036 12.332 20.4959 12.0751 22.4378 13.4348L21.5481 14.7055Z" fill="#1A1A1A"/>
<path d="M21.2434 14.563C20.8523 14.2891 20.7572 13.7501 21.0311 13.359C21.3049 12.968 21.8439 12.8729 22.235 13.1468C22.6261 13.4206 22.7211 13.9596 22.4473 14.3507C22.1735 14.7418 21.6344 14.8368 21.2434 14.563Z" fill="#1A1A1A"/>
<path d="M17.4451 19.987C17.0541 19.7132 16.959 19.1742 17.2328 18.7831C17.5067 18.392 18.0457 18.297 18.4368 18.5708C18.8279 18.8447 18.9229 19.3837 18.6491 19.7748C18.3752 20.1658 17.8362 20.2609 17.4451 19.987Z" fill="#1A1A1A"/>
<path d="M18.9643 17.672C18.3275 17.2261 18.1728 16.3484 18.6186 15.7117C19.0645 15.0749 19.9422 14.9201 20.579 15.366C21.2157 15.8119 21.3705 16.6895 20.9246 17.3263C20.4787 17.9631 19.6011 18.1179 18.9643 17.672Z" fill="#1A1A1A"/>
<path d="M18.7321 4.94348C18.7321 4.94348 18.7321 4.94348 18.7321 4.94348C17.3686 5.89822 17.0651 7.57971 17.8248 8.66466C18.5845 9.74961 20.2684 10.0395 21.6319 9.08481L22.5216 10.3554C20.5797 11.7152 17.8874 11.4584 16.5542 9.55437C15.221 7.65038 15.9005 5.0326 17.8424 3.67285C17.8424 3.67285 17.8424 3.67285 17.8424 3.67285L18.7321 4.94348Z" fill="#1A1A1A"/>
<path d="M18.494 5.1811C18.1029 5.45493 17.5639 5.35989 17.2901 4.96881C17.0162 4.57773 17.1113 4.03871 17.5023 3.76487C17.8934 3.49103 18.4324 3.58608 18.7063 3.97716C18.9801 4.36824 18.8851 4.90726 18.494 5.1811Z" fill="#1A1A1A"/>
<path d="M22.2921 10.6052C21.901 10.879 21.362 10.784 21.0881 10.3929C20.8143 10.0018 20.9094 9.46278 21.3004 9.18894C21.6915 8.9151 22.2305 9.01015 22.5044 9.40123C22.7782 9.79231 22.6832 10.3313 22.2921 10.6052Z" fill="#1A1A1A"/>
<path d="M20.636 8.38575C19.9992 8.83162 19.1216 8.67687 18.6757 8.0401C18.2298 7.40332 18.3846 6.52566 19.0213 6.07979C19.6581 5.63391 20.5358 5.78867 20.9816 6.42544C21.4275 7.06222 21.2728 7.93988 20.636 8.38575Z" fill="#1A1A1A"/>
<path d="M5.26764 5.04554C6.63109 6.00028 6.93454 7.68173 6.17487 8.76667C5.41519 9.8516 3.73135 10.1415 2.36786 9.18686L1.47815 10.4575C3.42006 11.8172 6.11232 11.5603 7.4455 9.65637C8.77867 7.7524 8.09922 5.13466 6.15735 3.7749L5.26764 5.04554Z" fill="#1A1A1A"/>
<path d="M5.50626 5.2829C5.89734 5.55674 6.43636 5.4617 6.71019 5.07061C6.98403 4.67953 6.88899 4.14051 6.49791 3.86668C6.10683 3.59284 5.56781 3.68788 5.29397 4.07896C5.02013 4.47004 5.11518 5.00906 5.50626 5.2829Z" fill="#1A1A1A"/>
<path d="M1.7084 10.7072C2.09948 10.9811 2.63851 10.886 2.91234 10.4949C3.18618 10.1039 3.09114 9.56483 2.70006 9.29099C2.30898 9.01716 1.76995 9.1122 1.49612 9.50328C1.22228 9.89436 1.31732 10.4334 1.7084 10.7072Z" fill="#1A1A1A"/>
<path d="M3.36413 8.4878C4.00091 8.93368 4.87857 8.77892 5.32444 8.14215C5.77032 7.50537 5.61556 6.62771 4.97879 6.18184C4.34201 5.73596 3.46435 5.89072 3.01848 6.52749C2.57261 7.16427 2.72736 8.04193 3.36413 8.4878Z" fill="#1A1A1A"/>
<path d="M2.44243 14.7058C2.44243 14.7058 2.44244 14.7058 2.44243 14.7058C3.80594 13.751 5.48982 14.0409 6.24951 15.1259C7.0092 16.2108 6.70573 17.8923 5.34223 18.8471C5.34222 18.8471 5.34223 18.8471 5.34223 18.8471L6.23193 20.1177C6.23192 20.1177 6.23193 20.1177 6.23193 20.1177C8.17384 18.758 8.85333 16.1402 7.52014 14.2362C6.18695 12.3322 3.49465 12.0754 1.55274 13.4351C1.55273 13.4351 1.55274 13.4351 1.55274 13.4351L2.44243 14.7058Z" fill="#1A1A1A"/>
<path d="M2.74725 14.563C3.13833 14.2891 3.23338 13.7501 2.95954 13.359C2.6857 12.968 2.14668 12.8729 1.7556 13.1468C1.36452 13.4206 1.26947 13.9596 1.54331 14.3507C1.81715 14.7418 2.35617 14.8368 2.74725 14.563Z" fill="#1A1A1A"/>
<path d="M6.54522 19.987C6.9363 19.7132 7.03135 19.1742 6.75751 18.7831C6.48367 18.392 5.94465 18.297 5.55357 18.5708C5.16249 18.8447 5.06745 19.3837 5.34129 19.7748C5.61512 20.1658 6.15414 20.2609 6.54522 19.987Z" fill="#1A1A1A"/>
<path d="M5.02624 17.672C5.66301 17.2261 5.81777 16.3484 5.3719 15.7117C4.92602 15.0749 4.04836 14.9201 3.41159 15.366C2.77481 15.8119 2.62006 16.6895 3.06593 17.3263C3.51181 17.9631 4.38947 18.1179 5.02624 17.672Z" fill="#1A1A1A"/>
</svg>
