<svg width="24" height="24" viewBox="0 0 24 24" fill="none" xmlns="http://www.w3.org/2000/svg">
<g id="document-default">
<g id="group-d">
<g id="document">
<mask id="path-1-inside-1_2518_6" fill="white">
<path d="M3.75 24C2.92157 24 2.25 23.3284 2.25 22.5V1.5C2.25 0.671573 2.92157 0 3.75 0H20.25C21.0784 0 21.75 0.671573 21.75 1.5V18V22.5C21.75 23.3284 21.0784 24 20.25 24H3.75Z"/>
</mask>
<path d="M3.75 24C2.92157 24 2.25 23.3284 2.25 22.5V1.5C2.25 0.671573 2.92157 0 3.75 0H20.25C21.0784 0 21.75 0.671573 21.75 1.5V18V22.5C21.75 23.3284 21.0784 24 20.25 24H3.75Z" fill="#F1F3F4" stroke="#2A3134" stroke-width="3" stroke-miterlimit="10" stroke-linecap="round" stroke-linejoin="round" mask="url(#path-1-inside-1_2518_6)"/>
</g>
<g id="lines">
<path d="M6.75 4.125C6.54289 4.125 6.375 4.29289 6.375 4.5C6.375 4.70711 6.54289 4.875 6.75 4.875H17.25C17.4571 4.875 17.625 4.70711 17.625 4.5C17.625 4.29289 17.4571 4.125 17.25 4.125H6.75Z" fill="#71767D"/>
<path d="M6.375 10.5C6.375 10.2929 6.54289 10.125 6.75 10.125H17.25C17.4571 10.125 17.625 10.2929 17.625 10.5C17.625 10.7071 17.4571 10.875 17.25 10.875H6.75C6.54289 10.875 6.375 10.7071 6.375 10.5Z" fill="#71767D"/>
<path d="M6.75 13.125C6.54289 13.125 6.375 13.2929 6.375 13.5C6.375 13.7071 6.54289 13.875 6.75 13.875H17.25C17.4571 13.875 17.625 13.7071 17.625 13.5C17.625 13.2929 17.4571 13.125 17.25 13.125H6.75Z" fill="#71767D"/>
<path d="M6.75 16.125C6.54289 16.125 6.375 16.2929 6.375 16.5C6.375 16.7071 6.54289 16.875 6.75 16.875H17.25C17.4571 16.875 17.625 16.7071 17.625 16.5C17.625 16.2929 17.4571 16.125 17.25 16.125H6.75Z" fill="#71767D"/>
<path d="M6.375 19.5C6.375 19.2929 6.54289 19.125 6.75 19.125H12C12.2071 19.125 12.375 19.2929 12.375 19.5C12.375 19.7071 12.2071 19.875 12 19.875H6.75C6.54289 19.875 6.375 19.7071 6.375 19.5Z" fill="#71767D"/>
<path d="M11.6298 7.125C11.4227 7.125 11.2548 7.29289 11.2548 7.5C11.2548 7.70711 11.4227 7.875 11.6298 7.875H16.8798C17.0869 7.875 17.2548 7.70711 17.2548 7.5C17.2548 7.29289 17.0869 7.125 16.8798 7.125H11.6298Z" fill="#71767D"/>
</g>
</g>
</g>
</svg>
