<svg width="24" height="24" viewBox="0 0 24 24" fill="none" xmlns="http://www.w3.org/2000/svg">
<path fill-rule="evenodd" clip-rule="evenodd" d="M21.7999 8.99995L21.7999 18C21.7999 19.2702 20.7702 20.3 19.4999 20.3L4.49993 20.3C3.22967 20.3 2.19993 19.2702 2.19993 18L2.19993 8.99995C2.19993 7.7297 3.22967 6.69995 4.49993 6.69995L19.4999 6.69995C20.7702 6.69995 21.7999 7.7297 21.7999 8.99995ZM19.9999 8.99995C19.9999 8.72381 19.7761 8.49995 19.4999 8.49995L4.49993 8.49995C4.22379 8.49995 3.99993 8.72381 3.99993 8.99995L3.99993 18C3.99993 18.2761 4.22378 18.5 4.49993 18.5L19.4999 18.5C19.7761 18.5 19.9999 18.2761 19.9999 18L19.9999 8.99995Z" fill="#1A1A1A"/>
<path fill-rule="evenodd" clip-rule="evenodd" d="M15.7499 3.69995C16.385 3.69995 16.8999 4.21482 16.8999 4.84995L16.8999 7.34995C16.8999 7.98508 16.385 8.49995 15.7499 8.49995L8.2499 8.49995C7.61478 8.49995 7.0999 7.98508 7.0999 7.34995L7.0999 4.84995C7.0999 4.21482 7.61478 3.69995 8.2499 3.69995L15.7499 3.69995ZM15.0999 5.49995L8.8999 5.49995L8.8999 6.69995L15.0999 6.69995L15.0999 5.49995Z" fill="#1A1A1A"/>
<path fill-rule="evenodd" clip-rule="evenodd" d="M12.0833 11.7252C11.5593 11.7252 11.3249 12.0688 11.3249 12.2752C11.3249 12.3441 11.3428 12.4148 11.4837 12.5199C11.6465 12.6415 11.9105 12.7534 12.2659 12.8494C12.6391 12.9503 12.8599 13.3346 12.759 13.7078C12.6581 14.081 12.2738 14.3018 11.9006 14.2009C11.4851 14.0887 11.02 13.9208 10.6464 13.642C10.2508 13.3467 9.92493 12.8967 9.92493 12.2752C9.92493 11.1009 10.9964 10.3252 12.0833 10.3252C12.8786 10.3252 13.6014 10.7177 13.9781 11.3575C14.1743 11.6906 14.0633 12.1197 13.7301 12.3159C13.397 12.5121 12.9679 12.401 12.7717 12.0679C12.6682 11.892 12.4267 11.7252 12.0833 11.7252Z" fill="#1A1A1A"/>
<path fill-rule="evenodd" clip-rule="evenodd" d="M11.9097 15.275C12.5573 15.275 12.7895 14.8849 12.7895 14.725C12.7895 14.6813 12.7838 14.6116 12.6156 14.4958C12.429 14.3672 12.1311 14.2517 11.7402 14.1542C11.3651 14.0607 11.1369 13.6807 11.2305 13.3056C11.324 12.9305 11.704 12.7023 12.0791 12.7959C12.5233 12.9067 13.0153 13.0711 13.4098 13.3428C13.8228 13.6273 14.1895 14.0785 14.1895 14.725C14.1895 15.9459 13.0071 16.675 11.9097 16.675C11.0924 16.675 10.3284 16.3039 9.92021 15.664C9.71228 15.3381 9.80794 14.9053 10.1339 14.6974C10.4598 14.4895 10.8926 14.5851 11.1005 14.9111C11.2126 15.0868 11.4933 15.275 11.9097 15.275Z" fill="#1A1A1A"/>
<path fill-rule="evenodd" clip-rule="evenodd" d="M12.0002 11.2C11.6136 11.2 11.3002 10.8866 11.3002 10.5L11.3002 10.1C11.3002 9.71335 11.6136 9.39995 12.0002 9.39995C12.3868 9.39995 12.7002 9.71335 12.7002 10.1L12.7002 10.5C12.7002 10.8866 12.3868 11.2 12.0002 11.2Z" fill="#1A1A1A"/>
<path fill-rule="evenodd" clip-rule="evenodd" d="M12.0002 17.6001C11.6136 17.6001 11.3002 17.2867 11.3002 16.9001L11.3002 16.5001C11.3002 16.1135 11.6136 15.8001 12.0002 15.8001C12.3868 15.8001 12.7002 16.1135 12.7002 16.5001L12.7002 16.9001C12.7002 17.2867 12.3868 17.6001 12.0002 17.6001Z" fill="#1A1A1A"/>
</svg>
