<svg width="24" height="24" viewBox="0 0 24 24" fill="none" xmlns="http://www.w3.org/2000/svg">
<path fill-rule="evenodd" clip-rule="evenodd" d="M1.25451 11.5888C0.929274 11.1771 0.999365 10.5797 1.41107 10.2545L11.1006 2.5998C11.6276 2.18354 12.3713 2.18353 12.8983 2.59976L22.5888 10.2544C23.0005 10.5796 23.0707 11.1771 22.7454 11.5888C22.4202 12.0005 21.8228 12.0706 21.4111 11.7454L20.9 11.3416V19.4999C20.9 20.2731 20.2732 20.8999 19.5 20.8999H4.49998C3.72678 20.8999 3.09998 20.2731 3.09998 19.4999V11.3416L2.58886 11.7454C2.17716 12.0706 1.57975 12.0005 1.25451 11.5888ZM4.89998 9.9196V19.0999H9.19997V12.2499C9.19997 11.67 9.67008 11.1999 10.25 11.1999H13.75C14.3299 11.1999 14.8 11.67 14.8 12.2499V19.0999H19.1V9.91981L11.9995 4.31106L4.89998 9.9196ZM13.2 19.0999V12.7999H10.8V19.0999H13.2Z" fill="#1A1A1A"/>
</svg>
