<svg width="24" height="24" viewBox="0 0 24 24" fill="none" xmlns="http://www.w3.org/2000/svg">
<path d="M20.8049 4.40254C21.0272 3.95796 20.847 3.41736 20.4025 3.19507C19.9579 2.97278 19.4173 3.15298 19.195 3.59756L15.7202 10.5472L12.0979 7.32738C11.8886 7.14137 11.6047 7.06334 11.3298 7.11629C11.0548 7.16924 10.8202 7.34713 10.695 7.59756L6.69497 15.5976C6.47268 16.0421 6.65289 16.5827 7.09747 16.805C7.54205 17.0273 8.08265 16.8471 8.30494 16.4025L11.7798 9.45292L15.402 12.6727C15.6113 12.8587 15.8952 12.9368 16.1702 12.8838C16.4451 12.8309 16.6797 12.653 16.8049 12.4025L20.8049 4.40254Z" fill="#1A1A1A"/>
<path d="M4.79995 3.99995C4.79995 3.55812 4.44178 3.19995 3.99995 3.19995C3.55812 3.19995 3.19995 3.55812 3.19995 3.99995V20C3.19995 20.4418 3.55812 20.7999 3.99995 20.7999H20C20.4418 20.7999 20.7999 20.4418 20.7999 20C20.7999 19.5581 20.4418 19.2 20 19.2H4.79995V3.99995Z" fill="#1A1A1A"/>
</svg>
