<svg width="24" height="24" viewBox="0 0 24 24" fill="none" xmlns="http://www.w3.org/2000/svg">
<path fill-rule="evenodd" clip-rule="evenodd" d="M10.4356 3.34082C9.97276 3.34082 9.59758 3.716 9.59758 4.17881C9.59758 7.17164 7.17142 9.5978 4.17859 9.5978C3.71578 9.5978 3.3406 9.97298 3.3406 10.4358C3.3406 10.8986 3.71578 11.2738 4.17859 11.2738C8.09703 11.2738 11.2736 8.09725 11.2736 4.17881C11.2736 3.716 10.8984 3.34082 10.4356 3.34082Z" fill="#1A1A1A"/>
<path fill-rule="evenodd" clip-rule="evenodd" d="M13.5644 20.6592C14.0272 20.6592 14.4024 20.284 14.4024 19.8212C14.4024 16.8284 16.8286 14.4022 19.8214 14.4022C20.2842 14.4022 20.6594 14.027 20.6594 13.5642C20.6594 13.1014 20.2842 12.7262 19.8214 12.7262C15.903 12.7262 12.7264 15.9027 12.7264 19.8212C12.7264 20.284 13.1016 20.6592 13.5644 20.6592Z" fill="#1A1A1A"/>
<path fill-rule="evenodd" clip-rule="evenodd" d="M20.6594 10.4357C20.6594 9.97288 20.2842 9.5977 19.8214 9.5977C16.8286 9.5977 14.4024 7.17154 14.4024 4.17871C14.4024 3.7159 14.0273 3.34072 13.5645 3.34072C13.1016 3.34072 12.7265 3.7159 12.7265 4.17871C12.7265 8.09715 15.903 11.2737 19.8214 11.2737C20.2842 11.2737 20.6594 10.8985 20.6594 10.4357Z" fill="#1A1A1A"/>
<path fill-rule="evenodd" clip-rule="evenodd" d="M3.34058 13.5643C3.34058 14.0271 3.71576 14.4023 4.17856 14.4023C7.17139 14.4023 9.59756 16.8285 9.59756 19.8213C9.59756 20.2841 9.97274 20.6593 10.4355 20.6593C10.8984 20.6593 11.2735 20.2841 11.2735 19.8213C11.2735 15.9028 8.09701 12.7263 4.17856 12.7263C3.71576 12.7263 3.34058 13.1015 3.34058 13.5643Z" fill="#1A1A1A"/>
<path fill-rule="evenodd" clip-rule="evenodd" d="M7.30723 3.39673C6.87528 3.39673 6.52511 3.7469 6.52511 4.17885C6.52511 5.47472 5.4746 6.52522 4.17874 6.52522C3.74679 6.52522 3.39662 6.87539 3.39662 7.30734C3.39662 7.7393 3.74679 8.08947 4.17874 8.08947C6.33851 8.08947 8.08936 6.33862 8.08936 4.17885C8.08936 3.7469 7.73919 3.39673 7.30723 3.39673Z" fill="#1A1A1A"/>
<path fill-rule="evenodd" clip-rule="evenodd" d="M12.0002 7.08374C11.5065 7.08374 11.1063 7.48393 11.1063 7.97759C11.1063 9.70541 9.70566 11.1061 7.97784 11.1061C7.48418 11.1061 7.08399 11.5063 7.08399 11.9999C7.08399 12.4936 7.48418 12.8938 7.97784 12.8938C10.693 12.8938 12.894 10.6927 12.894 7.97759C12.894 7.48393 12.4939 7.08374 12.0002 7.08374Z" fill="#1A1A1A"/>
<path fill-rule="evenodd" clip-rule="evenodd" d="M11.9998 16.9163C12.4935 16.9163 12.8937 16.5161 12.8937 16.0224C12.8937 14.2946 14.2943 12.8939 16.0222 12.8939C16.5158 12.8939 16.916 12.4937 16.916 12.0001C16.916 11.5064 16.5158 11.1062 16.0222 11.1062C13.307 11.1062 11.106 13.3073 11.106 16.0224C11.106 16.5161 11.5061 16.9163 11.9998 16.9163Z" fill="#1A1A1A"/>
<path fill-rule="evenodd" clip-rule="evenodd" d="M16.9159 11.9999C16.9159 11.5063 16.5157 11.1061 16.022 11.1061C14.2942 11.1061 12.8935 9.70542 12.8935 7.9776C12.8935 7.48394 12.4934 7.08374 11.9997 7.08374C11.506 7.08374 11.1058 7.48394 11.1058 7.9776C11.1058 10.6927 13.3069 12.8938 16.022 12.8938C16.5157 12.8938 16.9159 12.4936 16.9159 11.9999Z" fill="#1A1A1A"/>
<path fill-rule="evenodd" clip-rule="evenodd" d="M7.08411 12.0001C7.08411 12.4937 7.4843 12.8939 7.97796 12.8939C9.70578 12.8939 11.1065 14.2946 11.1065 16.0224C11.1065 16.5161 11.5066 16.9163 12.0003 16.9163C12.494 16.9163 12.8942 16.5161 12.8942 16.0224C12.8942 13.3073 10.6931 11.1062 7.97796 11.1062C7.4843 11.1062 7.08411 11.5064 7.08411 12.0001Z" fill="#1A1A1A"/>
<path fill-rule="evenodd" clip-rule="evenodd" d="M16.6928 20.6033C17.1247 20.6033 17.4749 20.2531 17.4749 19.8211C17.4749 18.5253 18.5254 17.4748 19.8213 17.4748C20.2532 17.4748 20.6034 17.1246 20.6034 16.6927C20.6034 16.2607 20.2532 15.9105 19.8213 15.9105C17.6615 15.9105 15.9106 17.6614 15.9106 19.8211C15.9106 20.2531 16.2608 20.6033 16.6928 20.6033Z" fill="#1A1A1A"/>
<path fill-rule="evenodd" clip-rule="evenodd" d="M20.6035 7.30723C20.6035 6.87528 20.2533 6.52511 19.8214 6.52511C18.5255 6.52511 17.475 5.4746 17.475 4.17874C17.475 3.74679 17.1249 3.39662 16.6929 3.39662C16.2609 3.39662 15.9108 3.74679 15.9108 4.17874C15.9108 6.33851 17.6616 8.08936 19.8214 8.08936C20.2533 8.08936 20.6035 7.73919 20.6035 7.30723Z" fill="#1A1A1A"/>
<path fill-rule="evenodd" clip-rule="evenodd" d="M3.39648 16.6928C3.39648 17.1247 3.74665 17.4749 4.17861 17.4749C5.47447 17.4749 6.52498 18.5254 6.52498 19.8213C6.52498 20.2532 6.87514 20.6034 7.3071 20.6034C7.73905 20.6034 8.08922 20.2532 8.08922 19.8213C8.08922 17.6615 6.33838 15.9106 4.17861 15.9106C3.74665 15.9106 3.39648 16.2608 3.39648 16.6928Z" fill="#1A1A1A"/>
<path fill-rule="evenodd" clip-rule="evenodd" d="M10.4356 5.01685C9.97284 5.01685 9.59766 4.64167 9.59766 4.17886L9.59766 2.83807C9.59766 2.37527 9.97284 2.00009 10.4356 2.00009C10.8985 2.00009 11.2736 2.37527 11.2736 2.83807L11.2736 4.17886C11.2736 4.64167 10.8985 5.01685 10.4356 5.01685Z" fill="#1A1A1A"/>
<path fill-rule="evenodd" clip-rule="evenodd" d="M13.5644 18.9832C14.0272 18.9832 14.4023 19.3583 14.4023 19.8211L14.4023 21.1619C14.4023 21.6247 14.0272 21.9999 13.5644 21.9999C13.1015 21.9999 12.7264 21.6247 12.7264 21.1619L12.7264 19.8211C12.7264 19.3583 13.1015 18.9832 13.5644 18.9832Z" fill="#1A1A1A"/>
<path fill-rule="evenodd" clip-rule="evenodd" d="M18.9829 10.4359C18.9829 9.97308 19.3581 9.5979 19.8209 9.5979L21.1617 9.5979C21.6245 9.5979 21.9997 9.97308 21.9997 10.4359C21.9997 10.8987 21.6245 11.2739 21.1617 11.2739L19.8209 11.2739C19.3581 11.2739 18.9829 10.8987 18.9829 10.4359Z" fill="#1A1A1A"/>
<path fill-rule="evenodd" clip-rule="evenodd" d="M5.01709 13.5641C5.01709 14.0269 4.64191 14.4021 4.1791 14.4021L2.83832 14.4021C2.37551 14.4021 2.00033 14.0269 2.00033 13.5641C2.00033 13.1013 2.37551 12.7261 2.83832 12.7261L4.1791 12.7261C4.64191 12.7261 5.01709 13.1013 5.01709 13.5641Z" fill="#1A1A1A"/>
<path fill-rule="evenodd" clip-rule="evenodd" d="M2 10.4359C2 9.97308 2.37518 9.5979 2.83799 9.5979H4.17877C4.64158 9.5979 5.01676 9.97308 5.01676 10.4359C5.01676 10.8987 4.64158 11.2739 4.17877 11.2739H2.83799C2.37518 11.2739 2 10.8987 2 10.4359Z" fill="#1A1A1A"/>
<path fill-rule="evenodd" clip-rule="evenodd" d="M22 13.5641C22 14.0269 21.6248 14.4021 21.162 14.4021L19.8212 14.4021C19.3584 14.4021 18.9832 14.0269 18.9832 13.5641C18.9832 13.1013 19.3584 12.7261 19.8212 12.7261L21.162 12.7261C21.6248 12.7261 22 13.1013 22 13.5641Z" fill="#1A1A1A"/>
<path fill-rule="evenodd" clip-rule="evenodd" d="M13.5644 2C14.0272 2 14.4023 2.37518 14.4023 2.83799L14.4023 4.17877C14.4023 4.64158 14.0272 5.01676 13.5644 5.01676C13.1015 5.01676 12.7264 4.64158 12.7264 4.17877L12.7264 2.83799C12.7264 2.37518 13.1015 2 13.5644 2Z" fill="#1A1A1A"/>
<path fill-rule="evenodd" clip-rule="evenodd" d="M10.4356 22C9.97284 22 9.59766 21.6248 9.59766 21.162L9.59766 19.8212C9.59766 19.3584 9.97284 18.9832 10.4356 18.9832C10.8985 18.9832 11.2736 19.3584 11.2736 19.8212L11.2736 21.162C11.2736 21.6248 10.8985 22 10.4356 22Z" fill="#1A1A1A"/>
</svg>
