<svg width="24" height="24" viewBox="0 0 24 24" fill="none" xmlns="http://www.w3.org/2000/svg">
<path fill-rule="evenodd" clip-rule="evenodd" d="M16.215 10.7051C16.595 11.0851 16.595 11.7012 16.215 12.0811L11.5934 16.7028C11.2134 17.0827 10.5974 17.0827 10.2174 16.7028L7.78498 14.2703C7.40501 13.8904 7.40501 13.2743 7.78498 12.8943C8.16495 12.5144 8.781 12.5144 9.16097 12.8943L10.9054 14.6388L14.839 10.7051C15.219 10.3252 15.8351 10.3252 16.215 10.7051Z" fill="#1A1A1A"/>
<path d="M11.3459 3.62012C11.4465 3.35695 11.7014 3.17007 12 3.17007C12.2985 3.17007 12.5534 3.35695 12.654 3.62012H14.2865C14.162 2.46743 13.1858 1.57007 12 1.57007C10.8142 1.57007 9.83795 2.46743 9.71338 3.62012H11.3459Z" fill="#1A1A1A"/>
<path d="M8.00495 3.82007C8.00166 3.83624 7.99994 3.85298 7.99994 3.87012V5.62007H6.49995C6.22381 5.62007 5.99995 5.84393 5.99995 6.12007V20.1201C5.99995 20.3962 6.22381 20.6201 6.49995 20.6201H17.5C17.7761 20.6201 18 20.3962 18 20.1201V6.12007C18 5.84393 17.7761 5.62007 17.5 5.62007H15.9999V3.87012C15.9999 3.85298 15.9982 3.83624 15.9949 3.82007H17.5C18.7702 3.82007 19.8 4.84981 19.8 6.12007V20.1201C19.8 21.3903 18.7702 22.4201 17.5 22.4201H6.49995C5.2297 22.4201 4.19995 21.3903 4.19995 20.1201V6.12007C4.19995 4.84982 5.22969 3.82007 6.49995 3.82007H8.00495Z" fill="#1A1A1A"/>
<path fill-rule="evenodd" clip-rule="evenodd" d="M7.19995 3.87007C7.19995 3.29017 7.67005 2.82007 8.24995 2.82007H15.75C16.3299 2.82007 16.8 3.29017 16.8 3.87007V6.87007C16.8 7.44997 16.3299 7.92007 15.75 7.92007H8.24995C7.67005 7.92007 7.19995 7.44997 7.19995 6.87007V3.87007ZM8.79995 4.42007V6.32007H15.2V4.42007H8.79995Z" fill="#1A1A1A"/>
</svg>
