<svg width="24" height="24" viewBox="0 0 24 24" fill="none" xmlns="http://www.w3.org/2000/svg">
<path d="M13.6591 11.2801C12.9338 10.2631 11.7444 9.59985 10.4 9.59985C8.19089 9.59985 6.40002 11.3907 6.40002 13.5999C6.40002 15.809 8.19089 17.5999 10.4 17.5999C12.6092 17.5999 14.4 15.809 14.4 13.5999C14.4 13.3085 14.3689 13.0244 14.3097 12.7508L12.665 14.3956C12.3367 15.33 11.4466 15.9999 10.4 15.9999C9.07454 15.9999 8.00002 14.9253 8.00002 13.5999C8.00002 12.2744 9.07454 11.1999 10.4 11.1999C11.3042 11.1999 12.0916 11.6998 12.5008 12.4384L13.6591 11.2801Z" fill="#1A1A1A"/>
<path d="M15.7972 9.14197C14.5133 7.58925 12.5722 6.59985 10.4 6.59985C6.53403 6.59985 3.40002 9.73386 3.40002 13.5999C3.40002 17.4658 6.53403 20.5999 10.4 20.5999C14.266 20.5999 17.4 17.4658 17.4 13.5999C17.4 12.4556 17.1255 11.3755 16.6387 10.4218L15.4298 11.6308C15.6688 12.2409 15.8 12.905 15.8 13.5999C15.8 16.5822 13.3824 18.9999 10.4 18.9999C7.41769 18.9999 5.00002 16.5822 5.00002 13.5999C5.00002 10.6175 7.41769 8.19985 10.4 8.19985C12.1306 8.19985 13.671 9.01391 14.6592 10.28L15.7972 9.14197Z" fill="#1A1A1A"/>
<path d="M18.8 13.5999C18.8 18.239 15.0392 21.9999 10.4 21.9999C5.76083 21.9999 2.00002 18.239 2.00002 13.5999C2.00002 8.96066 5.76083 5.19985 10.4 5.19985C12.9587 5.19985 15.2502 6.34387 16.7909 8.14831L17.9252 7.01397C16.0923 4.92131 13.4005 3.59985 10.4 3.59985C4.87718 3.59985 0.400024 8.07701 0.400024 13.5999C0.400024 19.1227 4.87718 23.5999 10.4 23.5999C15.9229 23.5999 20.4 19.1227 20.4 13.5999C20.4 11.6218 19.8257 9.77791 18.8347 8.22579L17.6705 9.39C18.3888 10.6277 18.8 12.0658 18.8 13.5999Z" fill="#1A1A1A"/>
<path fill-rule="evenodd" clip-rule="evenodd" d="M18.9304 5.06952C19.2232 5.36242 19.2232 5.83729 18.9304 6.13018L10.9304 14.1302C10.6375 14.4231 10.1626 14.4231 9.86969 14.1302C9.5768 13.8373 9.5768 13.3624 9.86969 13.0695L17.8697 5.06952C18.1626 4.77663 18.6375 4.77663 18.9304 5.06952Z" fill="#1A1A1A"/>
<path fill-rule="evenodd" clip-rule="evenodd" d="M21.0608 0.418642C21.2969 0.474381 21.4873 0.648402 21.564 0.878557L21.9533 2.04652L23.1213 2.43584C23.3515 2.51256 23.5255 2.70297 23.5812 2.93909C23.637 3.1752 23.5665 3.42334 23.3949 3.59489L20.8949 6.09489C20.7637 6.22617 20.5856 6.29992 20.4 6.29992H18.4C18.0134 6.29992 17.7 5.98652 17.7 5.59992V3.59992C17.7 3.41426 17.7737 3.23622 17.905 3.10494L20.405 0.604942C20.5765 0.433394 20.8247 0.362903 21.0608 0.418642ZM19.1 3.88987V4.89992H20.11L21.6041 3.40583L21.1786 3.26399C20.9696 3.19432 20.8055 3.0303 20.7359 2.82128L20.594 2.39578L19.1 3.88987Z" fill="#1A1A1A"/>
</svg>
