<svg width="24" height="24" viewBox="0 0 24 24" fill="none" xmlns="http://www.w3.org/2000/svg">
<path d="M10.6229 10.5596C11.4039 9.77857 11.4039 8.51224 10.6229 7.73119C9.84182 6.95014 8.57549 6.95014 7.79444 7.73119C7.01339 8.51224 7.01339 9.77857 7.79444 10.5596C8.57549 11.3407 9.84182 11.3407 10.6229 10.5596Z" fill="#1A1A1A"/>
<path fill-rule="evenodd" clip-rule="evenodd" d="M20.9593 15.282L15.3025 20.9388C14.209 22.0323 12.4362 22.0323 11.3427 20.9388L3.87943 13.4756C3.31816 12.9143 3.02148 12.1412 3.0632 11.3485L3.34604 5.9745C3.42134 4.54387 4.56437 3.40083 5.99501 3.32554L11.369 3.04269C12.1617 3.00097 12.9348 3.29765 13.4961 3.85892L20.9593 11.3222C22.0528 12.4156 22.0528 14.1885 20.9593 15.282ZM6.08962 5.12305C5.57867 5.14994 5.17045 5.55817 5.14356 6.06911L4.86071 11.4431C4.84581 11.7262 4.95177 12.0023 5.15222 12.2028L12.6155 19.666C13.006 20.0566 13.6392 20.0566 14.0297 19.666L19.6865 14.0092C20.0771 13.6187 20.0771 12.9855 19.6865 12.595L12.2233 5.13172C12.0228 4.93126 11.7467 4.82531 11.4636 4.84021L6.08962 5.12305Z" fill="#1A1A1A"/>
</svg>
