<svg width="24" height="24" viewBox="0 0 24 24" fill="none" xmlns="http://www.w3.org/2000/svg">
<path d="M20.8696 10.8696H11.0725C10.9275 10.5797 10.6957 10.2898 10.4638 10.0869C10.058 9.73912 9.56522 9.62317 9.07246 9.71013L8.98551 9.73912V9.65216C9.04348 9.13042 8.86957 8.66665 8.52174 8.23187C8.08696 7.68115 7.36232 7.3623 6.66667 7.3623C6 7.3623 5.27536 7.68115 4.81159 8.20288C4.46377 8.60868 4.31884 9.15941 4.37681 9.62317V9.71013H4.28986C3.85507 9.59419 3.30435 9.73912 2.86957 10.0869C2.28986 10.5507 2 11.2753 2 12C2 12.7246 2.31884 13.4493 2.86957 13.913C3.30435 14.2609 3.82609 14.4058 4.28986 14.2898L4.37681 14.2609V14.3478C4.31884 14.8116 4.49275 15.3623 4.84058 15.7681C5.30435 16.2898 6.02899 16.6087 6.69565 16.6087C7.3913 16.6087 8.08696 16.2898 8.55072 15.7681C8.92754 15.3333 9.07246 14.8696 9.01449 14.3478V14.2609L9.10145 14.2898C9.56522 14.3768 10.058 14.2609 10.4928 13.913C10.8116 13.6522 11.0145 13.2464 11.1594 12.8696H16.1449C16.4348 12.8696 16.6957 13.0724 16.6957 13.3913C16.6957 13.6811 16.4638 13.942 16.1739 13.942H15.7101V16.6377H17.6522V14.4638C17.6522 14.1449 17.8841 13.913 18.2029 13.913C18.4928 13.913 18.7826 14.1449 18.7826 14.4638V16.6377H20.7536V13.913H20.3188C20.029 13.913 19.7681 13.6811 19.7681 13.3913C19.7681 13.0724 20 12.8696 20.3188 12.8696H20.8696C21.4203 12.8696 21.8551 12.4348 21.8551 11.884C21.8551 11.3043 21.3913 10.8696 20.8696 10.8696ZM8.34783 12.9565C8.14493 12.9565 7.94203 12.8985 7.76812 12.7826L7.44928 13.0725C7.56522 13.2174 7.62319 13.3913 7.62319 13.5942C7.62319 14.1159 7.18841 14.5507 6.69565 14.5507C6.43478 14.5507 6.2029 14.4638 6.02899 14.2609C5.85507 14.0869 5.73913 13.8551 5.76812 13.5942C5.76812 13.4203 5.82609 13.2464 5.94203 13.0725L5.62319 12.7826C5.42029 12.8985 5.24638 12.9565 5.07246 12.9565C4.81159 12.9565 4.57971 12.8696 4.4058 12.6956C4.23188 12.5217 4.11594 12.2609 4.11594 12C4.11594 11.7391 4.2029 11.5072 4.4058 11.3333C4.57971 11.1594 4.81159 11.0435 5.07246 11.0435C5.27536 11.0435 5.47826 11.1304 5.62319 11.2464L5.94203 10.9275C5.85507 10.7826 5.76812 10.5797 5.76812 10.3478C5.76812 10.0869 5.85507 9.85506 6.02899 9.68115C6.2029 9.50723 6.43478 9.39129 6.69565 9.39129C6.95652 9.39129 7.18841 9.47825 7.36232 9.68115C7.53623 9.85506 7.62319 10.0869 7.62319 10.3478C7.62319 10.5507 7.56522 10.7246 7.44928 10.9275L7.76812 11.2464C7.94203 11.1014 8.14493 11.0435 8.34783 11.0435C8.6087 11.0435 8.84058 11.1304 9.01449 11.3333C9.18841 11.5072 9.27536 11.7391 9.27536 12C9.30435 12.5507 8.86957 12.9565 8.34783 12.9565Z" fill="#1A1A1A"/>
</svg>
