<svg width="24" height="24" viewBox="0 0 24 24" fill="none" xmlns="http://www.w3.org/2000/svg">
<path fill-rule="evenodd" clip-rule="evenodd" d="M4.49995 2.19995H19.5C20.7702 2.19995 21.7999 3.2297 21.7999 4.49995V19.5C21.7999 20.7702 20.7702 21.7999 19.5 21.7999H4.49995C3.2297 21.7999 2.19995 20.7702 2.19995 19.5V4.49995C2.19995 3.2297 3.2297 2.19995 4.49995 2.19995ZM4.49995 3.99995C4.22381 3.99995 3.99995 4.22381 3.99995 4.49995V19.5C3.99995 19.7761 4.22381 20 4.49995 20H19.5C19.7761 20 20 19.7761 20 19.5V4.49995C20 4.22381 19.7761 3.99995 19.5 3.99995H4.49995Z" fill="#1A1A1A"/>
<path fill-rule="evenodd" clip-rule="evenodd" d="M13.6287 13.6287C13.9216 13.3358 14.3965 13.3358 14.6894 13.6287L17.8714 16.8107C18.1643 17.1036 18.1643 17.5785 17.8714 17.8714C17.5785 18.1643 17.1036 18.1643 16.8107 17.8714L13.6287 14.6894C13.3358 14.3965 13.3358 13.9216 13.6287 13.6287Z" fill="#1A1A1A"/>
<path fill-rule="evenodd" clip-rule="evenodd" d="M13.6287 17.8714C13.3358 17.5785 13.3358 17.1036 13.6287 16.8107L16.8107 13.6288C17.1036 13.3359 17.5785 13.3359 17.8714 13.6288C18.1643 13.9216 18.1643 14.3965 17.8714 14.6894L14.6894 17.8714C14.3965 18.1643 13.9216 18.1643 13.6287 17.8714Z" fill="#1A1A1A"/>
<path fill-rule="evenodd" clip-rule="evenodd" d="M14 7.25C13.5858 7.25 13.25 6.91421 13.25 6.5C13.25 6.08579 13.5858 5.75 14 5.75H17.5C17.9142 5.75 18.25 6.08579 18.25 6.5V10C18.25 10.4142 17.9142 10.75 17.5 10.75C17.0858 10.75 16.75 10.4142 16.75 10V8.31066L7.03033 18.0303C6.73744 18.3232 6.26256 18.3232 5.96967 18.0303C5.67678 17.7374 5.67678 17.2626 5.96967 16.9697L15.6893 7.25H14Z" fill="#1A1A1A"/>
<path fill-rule="evenodd" clip-rule="evenodd" d="M8.25 9.6C8.99558 9.6 9.6 8.99558 9.6 8.25C9.6 7.50442 8.99558 6.9 8.25 6.9C7.50442 6.9 6.9 7.50442 6.9 8.25C6.9 8.99558 7.50442 9.6 8.25 9.6ZM8.25 11C9.76878 11 11 9.76878 11 8.25C11 6.73122 9.76878 5.5 8.25 5.5C6.73122 5.5 5.5 6.73122 5.5 8.25C5.5 9.76878 6.73122 11 8.25 11Z" fill="#1A1A1A"/>
</svg>
