<svg width="24" height="24" viewBox="0 0 24 24" fill="none" xmlns="http://www.w3.org/2000/svg">
<path fill-rule="evenodd" clip-rule="evenodd" d="M18.5 3.3999H5.50002C4.34023 3.3999 3.40002 4.3401 3.40002 5.4999V18.4999C3.40002 19.6597 4.34023 20.5999 5.50002 20.5999H18.5C19.6598 20.5999 20.6 19.6597 20.6 18.4999V5.4999C20.6 4.34011 19.6598 3.3999 18.5 3.3999ZM5.00002 5.4999C5.00002 5.22376 5.22388 4.9999 5.50002 4.9999H18.5C18.7762 4.9999 19 5.22376 19 5.4999V7.49988H5.00002V8.99988H11.25V13.2499H5.00002V14.7499H11.25V18.9999H12.75V14.7499H19V18.4999C19 18.776 18.7762 18.9999 18.5 18.9999H5.50002C5.22388 18.9999 5.00002 18.776 5.00002 18.4999V5.4999ZM12.75 13.2499H19V8.99988H12.75V13.2499Z" fill="#1A1A1A"/>
</svg>
