<svg width="24" height="24" viewBox="0 0 24 24" fill="none" xmlns="http://www.w3.org/2000/svg">
<path fill-rule="evenodd" clip-rule="evenodd" d="M10.716 1.56271C11.1202 0.318944 12.8798 0.318937 13.2839 1.56271L14.6382 5.7307H19.0206C20.3284 5.7307 20.8722 7.40417 19.8141 8.17287L16.2686 10.7488L17.6229 14.9168C18.027 16.1606 16.6035 17.1949 15.5455 16.4262L12 13.8502L8.45446 16.4262C7.39645 17.1948 5.9729 16.1606 6.37703 14.9168L7.73129 10.7488L4.18579 8.17287C3.12777 7.40418 3.67152 5.7307 4.9793 5.7307H9.36178L10.716 1.56271ZM12 3.11251L10.9 6.49787C10.7193 7.0541 10.2009 7.4307 9.61607 7.4307H6.05649L8.93625 9.52296C9.4094 9.86673 9.60739 10.4761 9.42666 11.0323L8.32669 14.4177L11.2065 12.3254C11.6796 11.9816 12.3203 11.9816 12.7935 12.3254L15.6732 14.4177L14.5733 11.0323C14.3925 10.4761 14.5905 9.86673 15.0637 9.52296L17.9434 7.4307H14.3839C13.799 7.4307 13.2807 7.0541 13.0999 6.49787L12 3.11251Z" fill="#1A1A1A"/>
<path fill-rule="evenodd" clip-rule="evenodd" d="M11.9999 23.3618C11.5028 23.3618 11.0999 22.9589 11.0999 22.4618L11.0999 17.2618C11.0999 16.7648 11.5028 16.3618 11.9999 16.3618C12.4969 16.3618 12.8999 16.7648 12.8999 17.2618L12.8999 22.4618C12.8999 22.9589 12.4969 23.3618 11.9999 23.3618Z" fill="#1A1A1A"/>
<path fill-rule="evenodd" clip-rule="evenodd" d="M7.49998 22.3618C7.00292 22.3618 6.59998 21.9589 6.59998 21.4618L6.59998 19.2618C6.59998 18.7648 7.00292 18.3618 7.49998 18.3618C7.99703 18.3618 8.39998 18.7648 8.39998 19.2618L8.39998 21.4618C8.39998 21.9589 7.99703 22.3618 7.49998 22.3618Z" fill="#1A1A1A"/>
<path fill-rule="evenodd" clip-rule="evenodd" d="M16.5 22.6118C16.0029 22.6118 15.6 22.2089 15.6 21.7118L15.6 19.0118C15.6 18.5148 16.0029 18.1118 16.5 18.1118C16.997 18.1118 17.4 18.5148 17.4 19.0118L17.4 21.7118C17.4 22.2089 16.997 22.6118 16.5 22.6118Z" fill="#1A1A1A"/>
</svg>
