<svg width="24" height="24" viewBox="0 0 24 24" fill="none" xmlns="http://www.w3.org/2000/svg">
<path d="M13 10.7499C13 10.3357 13.3358 9.99994 13.75 9.99994L17.25 9.99994C17.6642 9.99994 18 10.3357 18 10.7499C18 11.1642 17.6642 11.4999 17.25 11.4999L13.75 11.4999C13.3358 11.4999 13 11.1642 13 10.7499Z" fill="#1A1A1A"/>
<path d="M13.75 13.4999C13.3358 13.4999 13 13.8357 13 14.2499C13 14.6642 13.3358 14.9999 13.75 14.9999H16.25C16.6642 14.9999 17 14.6642 17 14.2499C17 13.8357 16.6642 13.4999 16.25 13.4999H13.75Z" fill="#1A1A1A"/>
<path fill-rule="evenodd" clip-rule="evenodd" d="M5.75001 10.9999C5.75001 9.48116 6.98123 8.24994 8.50001 8.24994C10.0188 8.24994 11.25 9.48116 11.25 10.9999C11.25 12.0748 10.6334 13.0056 9.73459 13.4579C11.1991 13.9683 12.25 15.3614 12.25 16.9999H10.75C10.75 15.7573 9.74265 14.7499 8.50001 14.7499C7.25737 14.7499 6.25001 15.7573 6.25001 16.9999H4.75001C4.75001 15.3614 5.80089 13.9683 7.26544 13.4579C6.36664 13.0056 5.75001 12.0748 5.75001 10.9999ZM8.50001 9.74994C7.80966 9.74994 7.25001 10.3096 7.25001 10.9999C7.25001 11.6903 7.80966 12.2499 8.50001 12.2499C9.19037 12.2499 9.75001 11.6903 9.75001 10.9999C9.75001 10.3096 9.19037 9.74994 8.50001 9.74994Z" fill="#1A1A1A"/>
<path fill-rule="evenodd" clip-rule="evenodd" d="M4.50001 5.19995H19.5C20.7703 5.19995 21.8 6.2297 21.8 7.49995V16.5C21.8 17.7702 20.7703 18.8 19.5 18.8H4.50001C3.22976 18.8 2.20001 17.7702 2.20001 16.5V7.49995C2.20001 6.2297 3.22976 5.19995 4.50001 5.19995ZM4.50001 6.99995C4.22387 6.99995 4.00001 7.22381 4.00001 7.49995V16.5C4.00001 16.7761 4.22387 17 4.50001 17H19.5C19.7762 17 20 16.7761 20 16.5V7.49995C20 7.22381 19.7762 6.99995 19.5 6.99995H4.50001Z" fill="#1A1A1A"/>
</svg>
