<svg width="24" height="24" viewBox="0 0 24 24" fill="none" xmlns="http://www.w3.org/2000/svg">
<path fill-rule="evenodd" clip-rule="evenodd" d="M15.1 8.02588C15.1 10.235 13.4882 12.0259 11.5 12.0259C9.5118 12.0259 7.90002 10.235 7.90002 8.02588C7.90002 5.81674 9.5118 4.02588 11.5 4.02588C13.4882 4.02588 15.1 5.81674 15.1 8.02588ZM13.5 8.02588C13.5 9.5141 12.4502 10.4259 11.5 10.4259C10.5499 10.4259 9.50002 9.5141 9.50002 8.02588C9.50002 6.53766 10.5499 5.62588 11.5 5.62588C12.4502 5.62588 13.5 6.53766 13.5 8.02588Z" fill="#1A1A1A"/>
<path d="M16.7847 5.39693C16.4977 5.56262 16.3994 5.92957 16.565 6.21655C16.7307 6.50352 17.0977 6.60185 17.3847 6.43616L19.167 5.40713C19.454 5.24145 19.5523 4.87449 19.3866 4.58752C19.2209 4.30054 18.854 4.20222 18.567 4.3679L16.7847 5.39693Z" fill="#1A1A1A"/>
<path d="M16.5041 8.01446C16.5041 7.68309 16.7727 7.41446 17.1041 7.41446H19.9005C20.2319 7.41446 20.5005 7.68309 20.5005 8.01446C20.5005 8.34583 20.2319 8.61446 19.9005 8.61446H17.1041C16.7727 8.61446 16.5041 8.34583 16.5041 8.01446Z" fill="#1A1A1A"/>
<path fill-rule="evenodd" clip-rule="evenodd" d="M4.5 18.0838C5.52375 19.0254 7.634 20.9272 11.5 20.9272C15.2551 20.9272 17.4095 19.0874 18.414 18.2296L18.5 18.1562C18.5 18.1562 16.431 13.0835 11.5 13.0835C6.3938 13.0835 4.5 18.0838 4.5 18.0838ZM6.50182 17.6912C6.70154 17.3713 6.95982 17.0078 7.28076 16.6469C8.18873 15.626 9.53514 14.6835 11.5 14.6835C13.3569 14.6835 14.7064 15.6236 15.6562 16.6862C15.9827 17.0514 16.2501 17.4193 16.4602 17.745C15.4134 18.5016 13.8344 19.3272 11.5 19.3272C9.10536 19.3272 7.53639 18.4811 6.50182 17.6912Z" fill="#1A1A1A"/>
<path d="M16.4548 9.79317C16.6205 9.5062 16.9874 9.40787 17.2744 9.57356L19.2023 10.6867C19.4893 10.8523 19.5876 11.2193 19.422 11.5063C19.2563 11.7932 18.8893 11.8916 18.6023 11.7259L16.6744 10.6128C16.3874 10.4471 16.2891 10.0802 16.4548 9.79317Z" fill="#1A1A1A"/>
</svg>
