<svg width="24" height="24" viewBox="0 0 24 24" fill="none" xmlns="http://www.w3.org/2000/svg">
<path fill-rule="evenodd" clip-rule="evenodd" d="M12.5099 2.25846C12.2028 2.04731 11.7973 2.04731 11.4901 2.25846L3.49014 7.75846C3.16528 7.9818 3.02358 8.39056 3.14051 8.76705C3.25745 9.14353 3.60579 9.4001 4.00001 9.4001H5.19998V16.7001H4.9C4.40294 16.7001 4 17.103 4 17.6001C4 18.0971 4.40294 18.5001 4.9 18.5001L19.1 18.5001C19.5971 18.5001 20 18.0971 20 17.6001C20 17.103 19.5971 16.7001 19.1 16.7001H18.8V9.4001H20C20.3942 9.4001 20.7426 9.14353 20.8595 8.76705C20.9764 8.39056 20.8347 7.9818 20.5099 7.75846L12.5099 2.25846ZM17.2 9.4001H14.8V16.7001L17.2 16.7001V9.4001ZM13.2 9.4001H10.8V16.7001H13.2V9.4001ZM9.19998 9.4001H6.79998L6.79998 16.7001H9.19998V9.4001ZM12 4.09228L17.1023 7.6001H6.89773L12 4.09228Z" fill="#1A1A1A"/>
<path d="M3 21.1001C3 20.603 3.40294 20.2001 3.9 20.2001L20.1 20.2001C20.5971 20.2001 21 20.603 21 21.1001C21 21.5971 20.5971 22.0001 20.1 22.0001L3.9 22.0001C3.40294 22.0001 3 21.5971 3 21.1001Z" fill="#1A1A1A"/>
</svg>
